Mooli.ufo
<glyph name="exclam" format="1">
  <advance width="737"/>
  <unicode hex="0021"/>
  <outline>
    <contour>
      <point x="260" y="183" type="line"/>
      <point x="474" y="183" type="line"/>
      <point x="474" y="-23" type="line"/>
      <point x="260" y="-23" type="line"/>
    </contour>
    <contour>
      <point x="426" y="373" type="line"/>
      <point x="260" y="373" type="line"/>
      <point x="260" y="1451" type="line"/>
      <point x="426" y="1451" type="line"/>
    </contour>
  </outline>
</glyph>
<glyph name="quotedbl" format="1">
  <advance width="720"/>
  <unicode hex="0022"/>
  <outline>
    <contour>
      <point x="439" y="989" type="line"/>
      <point x="403" y="1451" type="line"/>
      <point x="569" y="1451" type="line"/>
      <point x="569" y="989" type="line"/>
    </contour>
    <contour>
      <point x="150" y="989" type="line"/>
      <point x="114" y="1451" type="line"/>
      <point x="281" y="1451" type="line"/>
      <point x="281" y="989" type="line"/>
    </contour>
  </outline>
</glyph>
<glyph name="dollar" format="1">
  <advance width="1190"/>
  <unicode hex="0024"/>
  <outline>
    <contour>
      <point x="534" y="1293" type="line"/>
      <point x="414" y="1278"/>
      <point x="326" y="1193"/>
      <point x="326" y="1059" type="curve" smooth="yes"/>
      <point x="326" y="913"/>
      <point x="425" y="858"/>
      <point x="532" y="818" type="curve"/>
    </contour>
    <contour>
      <point x="251" y="223" type="line"/>
      <point x="325" y="173"/>
      <point x="421" y="132"/>
      <point x="531" y="127" type="curve"/>
      <point x="534" y="648" type="line"/>
      <point x="390" y="712"/>
      <point x="240" y="772"/>
      <point x="169" y="904" type="curve" smooth="yes"/>
      <point x="148" y="944"/>
      <point x="137" y="991"/>
      <point x="137" y="1047" type="curve" smooth="yes"/>
      <point x="137" y="1164"/>
      <point x="195" y="1254"/>
      <point x="259" y="1315" type="curve" smooth="yes"/>
      <point x="325" y="1377"/>
      <point x="421" y="1428"/>
      <point x="534" y="1437" type="curve"/>
      <point x="530" y="1575" type="line"/>
      <point x="654" y="1575" type="line"/>
      <point x="657" y="1439" type="line"/>
      <point x="798" y="1436"/>
      <point x="917" y="1394"/>
      <point x="997" y="1326" type="curve"/>
      <point x="948" y="1198" type="line"/>
      <point x="878" y="1261"/>
      <point x="781" y="1295"/>
      <point x="658" y="1299" type="curve"/>
      <point x="656" y="770" type="line"/>
      <point x="779" y="722"/>
      <point x="888" y="677"/>
      <point x="972" y="604" type="curve" smooth="yes"/>
      <point x="1038" y="547"/>
      <point x="1080" y="477"/>
      <point x="1080" y="361" type="curve" smooth="yes"/>
      <point x="1080" y="177"/>
      <point x="957" y="74"/>
      <point x="819" y="24" type="curve" smooth="yes"/>
      <point x="768" y="5"/>
      <point x="713" y="-6"/>
      <point x="656" y="-11" type="curve"/>
      <point x="659" y="-172" type="line"/>
      <point x="536" y="-172" type="line"/>
      <point x="532" y="-16" type="line"/>
      <point x="393" y="-13"/>
      <point x="291" y="25"/>
      <point x="202" y="89" type="curve"/>
    </contour>
    <contour>
      <point x="654" y="131" type="line"/>
      <point x="758" y="145"/>
      <point x="841" y="192"/>
      <point x="881" y="270" type="curve" smooth="yes"/>
      <point x="894" y="296"/>
      <point x="901" y="325"/>
      <point x="901" y="358" type="curve" smooth="yes"/>
      <point x="901" y="507"/>
      <point x="765" y="559"/>
      <point x="658" y="605" type="curve"/>
    </contour>
  </outline>
</glyph>
<glyph name="plus" format="1">
  <advance width="1458"/>
  <unicode hex="002B"/>
  <outline>
    <contour>
      <point x="649" y="624" type="line"/>
      <point x="649" y="1047" type="line"/>
      <point x="797" y="1047" type="line"/>
      <point x="797" y="624" type="line"/>
      <point x="1246" y="624" type="line"/>
      <point x="1246" y="485" type="line"/>
      <point x="795" y="485" type="line"/>
      <point x="795" y="62" type="line"/>
      <point x="646" y="62" type="line"/>
      <point x="646" y="485" type="line"/>
      <point x="198" y="485" type="line"/>
      <point x="198" y="624" type="line"/>
    </contour>
  </outline>
</glyph>
<glyph name="hyphen" format="1">
  <advance width="728"/>
  <unicode hex="002D"/>
  <outline>
    <contour>
      <point x="79" y="489" type="line"/>
      <point x="79" y="626" type="line"/>
      <point x="651" y="626" type="line"/>
      <point x="651" y="489" type="line"/>
    </contour>
  </outline>
</glyph>
<glyph name="period" format="1">
  <advance width="540"/>
  <unicode hex="002E"/>
  <outline>
    <contour>
      <point x="376" y="-11" type="line"/>
      <point x="159" y="-11" type="line"/>
      <point x="159" y="199" type="line"/>
      <point x="376" y="199" type="line"/>
    </contour>
  </outline>
</glyph>
<glyph name="slash" format="1">
  <advance width="717"/>
  <unicode hex="002F"/>
  <outline>
    <contour>
      <point x="-47" y="-215" type="line"/>
      <point x="590" y="1451" type="line"/>
      <point x="757" y="1451" type="line"/>
      <point x="116" y="-215" type="line"/>
    </contour>
  </outline>
</glyph>
<glyph name="one" format="1">
  <advance width="1190"/>
  <unicode hex="0031"/>
  <outline>
    <contour>
      <point x="253" y="1259" type="line"/>
      <point x="369" y="1312"/>
      <point x="491" y="1385"/>
      <point x="559" y="1436" type="curve"/>
      <point x="724" y="1438" type="line"/>
      <point x="724" y="0" type="line"/>
      <point x="552" y="0" type="line"/>
      <point x="552" y="1270" type="line"/>
      <point x="486" y="1220"/>
      <point x="400" y="1172"/>
      <point x="294" y="1128" type="curve"/>
    </contour>
  </outline>
</glyph>
<glyph name="two" format="1">
  <advance width="1190"/>
  <unicode hex="0032"/>
  <outline>
    <contour>
      <point x="573" y="1307" type="curve" smooth="yes"/>
      <point x="395" y="1307"/>
      <point x="285" y="1204"/>
      <point x="230" y="1078" type="curve"/>
      <point x="133" y="1175" type="line"/>
      <point x="195" y="1342"/>
      <point x="357" y="1448"/>
      <point x="584" y="1448" type="curve" smooth="yes"/>
      <point x="832.312" y="1448"/>
      <point x="1032" y="1323.48"/>
      <point x="1032" y="1078" type="curve" smooth="yes"/>
      <point x="1032" y="805.914"/>
      <point x="772.717" y="589.593"/>
      <point x="623" y="442" type="curve" smooth="yes"/>
      <point x="521" y="341"/>
      <point x="407" y="239"/>
      <point x="305" y="145" type="curve"/>
      <point x="1035" y="145" type="line"/>
      <point x="1035" y="0" type="line"/>
      <point x="99" y="0" type="line"/>
      <point x="98" y="147" type="line"/>
      <point x="255" y="297"/>
      <point x="432" y="456"/>
      <point x="583" y="616" type="curve" smooth="yes"/>
      <point x="687.127" y="725.786"/>
      <point x="857" y="884.578"/>
      <point x="857" y="1071" type="curve" smooth="yes"/>
      <point x="857" y="1228"/>
      <point x="731" y="1307"/>
    </contour>
  </outline>
</glyph>
<glyph name="four" format="1">
  <advance width="1189"/>
  <unicode hex="0034"/>
  <outline>
    <contour>
      <point x="726" y="0" type="line"/>
      <point x="726" y="351" type="line"/>
      <point x="25" y="351" type="line"/>
      <point x="25" y="475" type="line"/>
      <point x="690" y="1420" type="line"/>
      <point x="898" y="1420" type="line"/>
      <point x="898" y="483" type="line"/>
      <point x="1112" y="483" type="line"/>
      <point x="1112" y="351" type="line"/>
      <point x="898" y="351" type="line"/>
      <point x="898" y="0" type="line"/>
    </contour>
    <contour>
      <point x="726" y="483" type="line"/>
      <point x="726" y="1292" type="line"/>
      <point x="638" y="1146" type="line"/>
      <point x="196" y="483" type="line"/>
    </contour>
  </outline>
</glyph>
<glyph name="six" format="1">
  <advance width="1190"/>
  <unicode hex="0036"/>
  <outline>
    <contour>
      <point x="287" y="927"/>
      <point x="272" y="829"/>
      <point x="272" y="724" type="curve"/>
      <point x="338" y="845"/>
      <point x="467" y="914"/>
      <point x="645" y="914" type="curve" smooth="yes"/>
      <point x="865" y="914"/>
      <point x="1005" y="807"/>
      <point x="1066" y="645" type="curve" smooth="yes"/>
      <point x="1087" y="588"/>
      <point x="1098" y="525"/>
      <point x="1098" y="454" type="curve" smooth="yes"/>
      <point x="1098" y="228"/>
      <point x="977" y="80"/>
      <point x="813" y="14" type="curve" smooth="yes"/>
      <point x="753" y="-10"/>
      <point x="686" y="-23"/>
      <point x="612" y="-23" type="curve" smooth="yes"/>
      <point x="326" y="-23"/>
      <point x="182" y="160"/>
      <point x="124" y="393" type="curve" smooth="yes"/>
      <point x="103" y="479"/>
      <point x="92" y="574"/>
      <point x="92" y="678" type="curve" smooth="yes"/>
      <point x="92" y="1011"/>
      <point x="208" y="1271"/>
      <point x="422" y="1392" type="curve" smooth="yes"/>
      <point x="494" y="1433"/>
      <point x="579" y="1453"/>
      <point x="674" y="1453" type="curve" smooth="yes"/>
      <point x="823" y="1453"/>
      <point x="937" y="1402"/>
      <point x="999" y="1313" type="curve"/>
      <point x="944" y="1201" type="line"/>
      <point x="881" y="1267"/>
      <point x="798" y="1312"/>
      <point x="675" y="1312" type="curve" smooth="yes"/>
      <point x="468" y="1312"/>
      <point x="366" y="1165"/>
      <point x="314" y="1008" type="curve" smooth="yes"/>
    </contour>
    <contour>
      <point x="714" y="769"/>
      <point x="671" y="778"/>
      <point x="620" y="778" type="curve" smooth="yes"/>
      <point x="475" y="778"/>
      <point x="367" y="709"/>
      <point x="316" y="612" type="curve" smooth="yes"/>
      <point x="298" y="578"/>
      <point x="290" y="542"/>
      <point x="290" y="501" type="curve" smooth="yes"/>
      <point x="290" y="333"/>
      <point x="359" y="208"/>
      <point x="472" y="150" type="curve" smooth="yes"/>
      <point x="513" y="129"/>
      <point x="560" y="119"/>
      <point x="614" y="119" type="curve" smooth="yes"/>
      <point x="765" y="119"/>
      <point x="858" y="205"/>
      <point x="898" y="318" type="curve" smooth="yes"/>
      <point x="912" y="358"/>
      <point x="920" y="401"/>
      <point x="920" y="448" type="curve" smooth="yes"/>
      <point x="920" y="601"/>
      <point x="859" y="704"/>
      <point x="752" y="752" type="curve" smooth="yes"/>
    </contour>
  </outline>
</glyph>
<glyph name="seven" format="1">
  <advance width="1189"/>
  <unicode hex="0037"/>
  <outline>
    <contour>
      <point x="1065" y="1420" type="line"/>
      <point x="1065" y="1329" type="line"/>
      <point x="479" y="0" type="line"/>
      <point x="293" y="0" type="line"/>
      <point x="873" y="1275" type="line"/>
      <point x="95" y="1275" type="line"/>
      <point x="95" y="1420" type="line"/>
    </contour>
  </outline>
</glyph>
<glyph name="eight" format="1">
  <advance width="1190"/>
  <unicode hex="0038"/>
  <outline>
    <contour>
      <point x="409" y="747" type="curve"/>
      <point x="251" y="796"/>
      <point x="128" y="898"/>
      <point x="128" y="1091" type="curve" smooth="yes"/>
      <point x="128" y="1280"/>
      <point x="259" y="1384"/>
      <point x="408" y="1428" type="curve" smooth="yes"/>
      <point x="464" y="1444"/>
      <point x="523" y="1453"/>
      <point x="587" y="1453" type="curve" smooth="yes"/>
      <point x="788" y="1453"/>
      <point x="940" y="1376"/>
      <point x="1010" y="1244" type="curve" smooth="yes"/>
      <point x="1034" y="1199"/>
      <point x="1046" y="1148"/>
      <point x="1046" y="1091" type="curve" smooth="yes"/>
      <point x="1046" y="898"/>
      <point x="923" y="796"/>
      <point x="765" y="747" type="curve"/>
      <point x="944" y="694"/>
      <point x="1081" y="580"/>
      <point x="1081" y="367" type="curve" smooth="yes"/>
      <point x="1081" y="230"/>
      <point x="1015" y="138"/>
      <point x="932" y="78" type="curve" smooth="yes"/>
      <point x="848" y="17"/>
      <point x="726" y="-23"/>
      <point x="587" y="-23" type="curve" smooth="yes"/>
      <point x="374" y="-23"/>
      <point x="211" y="62"/>
      <point x="134" y="200" type="curve" smooth="yes"/>
      <point x="107" y="248"/>
      <point x="93" y="304"/>
      <point x="93" y="367" type="curve" smooth="yes"/>
      <point x="93" y="580"/>
      <point x="230" y="694"/>
    </contour>
    <contour>
      <point x="587" y="119" type="curve" smooth="yes"/>
      <point x="729" y="119"/>
      <point x="833" y="172"/>
      <point x="880" y="268" type="curve" smooth="yes"/>
      <point x="896" y="300"/>
      <point x="904" y="337"/>
      <point x="904" y="380" type="curve" smooth="yes"/>
      <point x="904" y="567"/>
      <point x="744" y="641"/>
      <point x="587" y="673" type="curve"/>
      <point x="457" y="647"/>
      <point x="345" y="592"/>
      <point x="294" y="489" type="curve" smooth="yes"/>
      <point x="278" y="457"/>
      <point x="270" y="421"/>
      <point x="270" y="380" type="curve" smooth="yes"/>
      <point x="270" y="201"/>
      <point x="407" y="119"/>
    </contour>
    <contour>
      <point x="587" y="820" type="curve"/>
      <point x="744" y="849"/>
      <point x="874" y="917"/>
      <point x="874" y="1086" type="curve" smooth="yes"/>
      <point x="874" y="1242"/>
      <point x="743" y="1317"/>
      <point x="587" y="1317" type="curve" smooth="yes"/>
      <point x="462" y="1317"/>
      <point x="367" y="1268"/>
      <point x="323" y="1185" type="curve" smooth="yes"/>
      <point x="308" y="1156"/>
      <point x="300" y="1123"/>
      <point x="300" y="1086" type="curve" smooth="yes"/>
      <point x="300" y="917"/>
      <point x="430" y="849"/>
    </contour>
  </outline>
</glyph>
<glyph name="nine" format="1">
  <advance width="1190"/>
  <unicode hex="0039"/>
  <outline>
    <contour>
      <point x="917" y="662"/>
      <point x="828" y="529"/>
      <point x="583" y="529" type="curve" smooth="yes"/>
      <point x="305" y="529"/>
      <point x="108" y="707"/>
      <point x="108" y="984" type="curve" smooth="yes"/>
      <point x="108" y="1274"/>
      <point x="310" y="1453"/>
      <point x="601" y="1453" type="curve" smooth="yes"/>
      <point x="922" y="1453"/>
      <point x="1113" y="1270"/>
      <point x="1113" y="986" type="curve" smooth="yes"/>
      <point x="1113" y="934"/>
      <point x="1106" y="878"/>
      <point x="1093" y="820" type="curve" smooth="yes"/>
      <point x="902" y="-20" type="line"/>
      <point x="748" y="1" type="line"/>
      <point x="917" y="662" type="line"/>
    </contour>
    <contour>
      <point x="402" y="1312"/>
      <point x="284" y="1179"/>
      <point x="284" y="989" type="curve" smooth="yes"/>
      <point x="284" y="792"/>
      <point x="393" y="673"/>
      <point x="592" y="673" type="curve" smooth="yes"/>
      <point x="780" y="673"/>
      <point x="950" y="754"/>
      <point x="950" y="981" type="curve" smooth="yes"/>
      <point x="950" y="1218"/>
      <point x="791" y="1312"/>
      <point x="593" y="1312" type="curve" smooth="yes"/>
    </contour>
  </outline>
</glyph>
<glyph name="semicolon" format="1">
  <advance width="540"/>
  <unicode hex="003B"/>
  <outline>
    <contour>
      <point x="206" y="207" type="line"/>
      <point x="394" y="207" type="line"/>
      <point x="231" y="-256" type="line"/>
      <point x="100" y="-256" type="line"/>
    </contour>
    <contour>
      <point x="376" y="841" type="line"/>
      <point x="159" y="841" type="line"/>
      <point x="206" y="1051" type="line"/>
      <point x="376" y="1051" type="line"/>
    </contour>
  </outline>
</glyph>
<glyph name="equal" format="1">
  <advance width="1458"/>
  <unicode hex="003D"/>
  <outline>
    <contour>
      <point x="1247" y="420" type="line"/>
      <point x="1247" y="283" type="line"/>
      <point x="198" y="283" type="line"/>
      <point x="198" y="420" type="line"/>
    </contour>
    <contour>
      <point x="1246" y="827" type="line"/>
      <point x="1246" y="689" type="line"/>
      <point x="197" y="689" type="line"/>
      <point x="197" y="827" type="line"/>
    </contour>
  </outline>
</glyph>
<glyph name="A" format="1">
  <advance width="1425"/>
  <unicode hex="0041"/>
  <outline>
    <contour>
      <point x="199" y="0" type="line"/>
      <point x="13" y="0" type="line"/>
      <point x="617" y="1456" type="line"/>
      <point x="802" y="1456" type="line"/>
      <point x="1407" y="0" type="line"/>
      <point x="1216" y="0" type="line"/>
      <point x="1053" y="397" type="line"/>
      <point x="355" y="397" type="line"/>
    </contour>
    <contour>
      <point x="410" y="545" type="line"/>
      <point x="994" y="545" type="line"/>
      <point x="760" y="1150" type="line"/>
      <point x="742" y="1192"/>
      <point x="721" y="1252"/>
      <point x="707" y="1298" type="curve"/>
      <point x="692" y="1252"/>
      <point x="670" y="1191"/>
      <point x="655" y="1149" type="curve"/>
    </contour>
  </outline>
</glyph>
<glyph name="B" format="1">
  <advance width="1352"/>
  <unicode hex="0042"/>
  <outline>
    <contour>
      <point x="202" y="0" type="line"/>
      <point x="202" y="1456" type="line"/>
      <point x="492" y="1456" type="line" smooth="yes"/>
      <point x="813" y="1456"/>
      <point x="1144" y="1424"/>
      <point x="1144" y="1105" type="curve" smooth="yes"/>
      <point x="1144" y="923"/>
      <point x="1022" y="809"/>
      <point x="879" y="769" type="curve"/>
      <point x="1065" y="737"/>
      <point x="1213" y="619"/>
      <point x="1213" y="403" type="curve" smooth="yes"/>
      <point x="1213" y="137"/>
      <point x="1001" y="0"/>
      <point x="729" y="0" type="curve" smooth="yes"/>
    </contour>
    <contour>
      <point x="769" y="828"/>
      <point x="963" y="879"/>
      <point x="963" y="1077" type="curve" smooth="yes"/>
      <point x="963" y="1279"/>
      <point x="785" y="1308"/>
      <point x="582" y="1308" type="curve" smooth="yes"/>
      <point x="374" y="1308" type="line"/>
      <point x="374" y="828" type="line"/>
      <point x="570" y="828" type="line" smooth="yes"/>
    </contour>
    <contour>
      <point x="867" y="148"/>
      <point x="1031" y="210"/>
      <point x="1031" y="406" type="curve" smooth="yes"/>
      <point x="1031" y="641"/>
      <point x="838" y="680"/>
      <point x="600" y="680" type="curve" smooth="yes"/>
      <point x="374" y="680" type="line"/>
      <point x="374" y="148" type="line"/>
      <point x="657" y="148" type="line" smooth="yes"/>
    </contour>
  </outline>
</glyph>
<glyph name="C" format="1">
  <advance width="1429"/>
  <unicode hex="0043"/>
  <outline>
    <contour>
      <point x="299" y="369"/>
      <point x="475" y="124"/>
      <point x="819" y="124" type="curve" smooth="yes"/>
      <point x="1000" y="124"/>
      <point x="1140" y="180"/>
      <point x="1241" y="268" type="curve"/>
      <point x="1299" y="127" type="line"/>
      <point x="1175" y="27"/>
      <point x="1006" y="-23"/>
      <point x="793" y="-23" type="curve" smooth="yes"/>
      <point x="361" y="-23"/>
      <point x="116" y="283"/>
      <point x="116" y="713" type="curve" smooth="yes"/>
      <point x="116" y="1155"/>
      <point x="380" y="1483"/>
      <point x="822" y="1483" type="curve" smooth="yes"/>
      <point x="1022" y="1483"/>
      <point x="1151" y="1429"/>
      <point x="1263" y="1329" type="curve"/>
      <point x="1198" y="1208" type="line"/>
      <point x="1097" y="1285"/>
      <point x="978" y="1335"/>
      <point x="841" y="1335" type="curve" smooth="yes"/>
      <point x="487" y="1335"/>
      <point x="299" y="1063"/>
      <point x="299" y="712" type="curve" smooth="yes"/>
    </contour>
    <contour>
      <point x="715" y="0" type="move" name="top"/>
    </contour>
    <contour>
      <point x="715" y="0" type="move" name="bottom"/>
    </contour>
  </outline>
</glyph>
<glyph name="D" format="1">
  <advance width="1546"/>
  <unicode hex="0044"/>
  <outline>
    <contour>
      <point x="508" y="1456" type="line" smooth="yes"/>
      <point x="1056" y="1456"/>
      <point x="1430" y="1273"/>
      <point x="1430" y="724" type="curve" smooth="yes"/>
      <point x="1430" y="241"/>
      <point x="1095" y="0"/>
      <point x="610" y="0" type="curve" smooth="yes"/>
      <point x="193" y="0" type="line"/>
      <point x="193" y="1456" type="line"/>
    </contour>
    <contour>
      <point x="365" y="148" type="line"/>
      <point x="626" y="148" type="line" smooth="yes"/>
      <point x="1011" y="148"/>
      <point x="1248" y="341"/>
      <point x="1248" y="721" type="curve" smooth="yes"/>
      <point x="1248" y="1170"/>
      <point x="979" y="1308"/>
      <point x="529" y="1308" type="curve" smooth="yes"/>
      <point x="365" y="1308" type="line"/>
    </contour>
  </outline>
</glyph>
<glyph name="E" format="1">
  <advance width="1218"/>
  <unicode hex="0045"/>
  <outline>
    <contour>
      <point x="1102" y="0" type="line"/>
      <point x="205" y="0" type="line"/>
      <point x="205" y="1456" type="line"/>
      <point x="1072" y="1456" type="line"/>
      <point x="1072" y="1308" type="line"/>
      <point x="377" y="1308" type="line"/>
      <point x="377" y="820" type="line"/>
      <point x="1034" y="820" type="line"/>
      <point x="1034" y="672" type="line"/>
      <point x="377" y="672" type="line"/>
      <point x="377" y="148" type="line"/>
      <point x="1102" y="148" type="line"/>
    </contour>
  </outline>
</glyph>
<glyph name="F" format="1">
  <advance width="1137"/>
  <unicode hex="0046"/>
  <outline>
    <contour>
      <point x="369" y="0" type="line"/>
      <point x="197" y="0" type="line"/>
      <point x="197" y="1456" type="line"/>
      <point x="1040" y="1456" type="line"/>
      <point x="1040" y="1308" type="line"/>
      <point x="369" y="1308" type="line"/>
      <point x="369" y="815" type="line"/>
      <point x="1006" y="815" type="line"/>
      <point x="1006" y="667" type="line"/>
      <point x="369" y="667" type="line"/>
    </contour>
  </outline>
</glyph>
<glyph name="G" format="1">
  <advance width="1530"/>
  <unicode hex="0047"/>
  <outline>
    <contour>
      <point x="1352" y="81" type="line"/>
      <point x="1207" y="13"/>
      <point x="1048" y="-23"/>
      <point x="849" y="-23" type="curve" smooth="yes"/>
      <point x="384" y="-23"/>
      <point x="116" y="239"/>
      <point x="116" y="701" type="curve" smooth="yes"/>
      <point x="116" y="1165"/>
      <point x="396" y="1483"/>
      <point x="860" y="1483" type="curve" smooth="yes"/>
      <point x="1071" y="1483"/>
      <point x="1211" y="1431"/>
      <point x="1327" y="1315" type="curve"/>
      <point x="1255" y="1198" type="line"/>
      <point x="1163" y="1286"/>
      <point x="1028" y="1335"/>
      <point x="856" y="1335" type="curve" smooth="yes"/>
      <point x="499" y="1335"/>
      <point x="294" y="1069"/>
      <point x="294" y="714" type="curve" smooth="yes"/>
      <point x="294" y="344"/>
      <point x="492" y="125"/>
      <point x="863" y="125" type="curve" smooth="yes"/>
      <point x="984" y="125"/>
      <point x="1090" y="135"/>
      <point x="1180" y="171" type="curve"/>
      <point x="1180" y="608" type="line"/>
      <point x="819" y="608" type="line"/>
      <point x="819" y="757" type="line"/>
      <point x="1352" y="757" type="line"/>
    </contour>
    <contour>
      <point x="765" y="0" type="move" name="top"/>
    </contour>
    <contour>
      <point x="765" y="0" type="move" name="bottom"/>
    </contour>
  </outline>
</glyph>
<glyph name="H" format="1">
  <advance width="1549"/>
  <unicode hex="0048"/>
  <outline>
    <contour>
      <point x="374" y="0" type="line"/>
      <point x="202" y="0" type="line"/>
      <point x="202" y="1456" type="line"/>
      <point x="374" y="1456" type="line"/>
      <point x="374" y="822" type="line"/>
      <point x="1176" y="822" type="line"/>
      <point x="1176" y="1456" type="line"/>
      <point x="1347" y="1456" type="line"/>
      <point x="1347" y="0" type="line"/>
      <point x="1176" y="0" type="line"/>
      <point x="1176" y="674" type="line"/>
      <point x="374" y="674" type="line"/>
    </contour>
  </outline>
</glyph>
<glyph name="J" format="1">
  <advance width="939"/>
  <unicode hex="004A"/>
  <outline>
    <contour>
      <point x="123" y="212" type="line"/>
      <point x="200" y="158"/>
      <point x="277" y="129"/>
      <point x="346" y="129" type="curve" smooth="yes"/>
      <point x="481" y="129"/>
      <point x="583" y="241"/>
      <point x="583" y="488" type="curve" smooth="yes"/>
      <point x="583" y="1308" type="line"/>
      <point x="244" y="1308" type="line"/>
      <point x="243" y="1456" type="line"/>
      <point x="1027" y="1456" type="line"/>
      <point x="1027" y="1308" type="line"/>
      <point x="755" y="1308" type="line"/>
      <point x="755" y="499" type="line" smooth="yes"/>
      <point x="755" y="192"/>
      <point x="632" y="-23"/>
      <point x="331" y="-23" type="curve" smooth="yes"/>
      <point x="218" y="-23"/>
      <point x="131" y="16"/>
      <point x="71" y="76" type="curve"/>
    </contour>
    <contour>
      <point x="470" y="0" type="move" name="top"/>
    </contour>
  </outline>
</glyph>
<glyph name="K" format="1">
  <advance width="1286"/>
  <unicode hex="004B"/>
  <outline>
    <contour>
      <point x="374" y="0" type="line"/>
      <point x="202" y="0" type="line"/>
      <point x="202" y="1456" type="line"/>
      <point x="374" y="1456" type="line"/>
      <point x="374" y="796" type="line"/>
      <point x="1018" y="1456" type="line"/>
      <point x="1234" y="1456" type="line"/>
      <point x="545" y="778" type="line"/>
      <point x="1288" y="0" type="line"/>
      <point x="1052" y="0" type="line"/>
      <point x="374" y="725" type="line"/>
    </contour>
    <contour>
      <point x="643" y="0" type="move" name="top"/>
    </contour>
    <contour>
      <point x="643" y="0" type="move" name="bottom"/>
    </contour>
  </outline>
</glyph>
<glyph name="L" format="1">
  <advance width="1120"/>
  <unicode hex="004C"/>
  <outline>
    <contour>
      <point x="1073" y="0" type="line"/>
      <point x="202" y="0" type="line"/>
      <point x="202" y="1456" type="line"/>
      <point x="374" y="1456" type="line"/>
      <point x="374" y="148" type="line"/>
      <point x="1073" y="148" type="line"/>
    </contour>
    <contour>
      <point x="560" y="0" type="move" name="top"/>
    </contour>
    <contour>
      <point x="560" y="0" type="move" name="bottom"/>
    </contour>
  </outline>
</glyph>
<glyph name="M" format="1">
  <advance width="2000"/>
  <unicode hex="004D"/>
  <outline>
    <contour>
      <point x="202" y="0" type="line"/>
      <point x="202" y="1456" type="line"/>
      <point x="440" y="1456" type="line"/>
      <point x="915" y="416" type="line"/>
      <point x="1001" y="212" type="line"/>
      <point x="1086" y="419" type="line"/>
      <point x="1564" y="1456" type="line"/>
      <point x="1798" y="1456" type="line"/>
      <point x="1798" y="0" type="line"/>
      <point x="1630" y="0" type="line"/>
      <point x="1630" y="1251" type="line"/>
      <point x="1562" y="1096" type="line"/>
      <point x="1062" y="0" type="line"/>
      <point x="936" y="0" type="line"/>
      <point x="432" y="1108" type="line"/>
      <point x="372" y="1268" type="line"/>
      <point x="372" y="0" type="line"/>
    </contour>
  </outline>
</glyph>
<glyph name="N" format="1">
  <advance width="1606"/>
  <unicode hex="004E"/>
  <outline>
    <contour>
      <point x="202" y="0" type="line"/>
      <point x="202" y="1456" type="line"/>
      <point x="408" y="1456" type="line"/>
      <point x="1155" y="342" type="line"/>
      <point x="1233" y="215" type="line"/>
      <point x="1233" y="1456" type="line"/>
      <point x="1404" y="1456" type="line"/>
      <point x="1404" y="0" type="line"/>
      <point x="1196" y="0" type="line"/>
      <point x="446" y="1113" type="line"/>
      <point x="374" y="1237" type="line"/>
      <point x="374" y="0" type="line"/>
    </contour>
    <contour>
      <point x="803" y="0" type="move" name="top"/>
    </contour>
    <contour>
      <point x="803" y="0" type="move" name="bottom"/>
    </contour>
  </outline>
</glyph>
<glyph name="O" format="1">
  <advance width="1662"/>
  <unicode hex="004F"/>
  <outline>
    <contour>
      <point x="1288" y="1483"/>
      <point x="1546" y="1185"/>
      <point x="1546" y="730" type="curve" smooth="yes"/>
      <point x="1546" y="276"/>
      <point x="1287" y="-23"/>
      <point x="834" y="-23" type="curve" smooth="yes"/>
      <point x="375" y="-23"/>
      <point x="116" y="271"/>
      <point x="116" y="730" type="curve" smooth="yes"/>
      <point x="116" y="1184"/>
      <point x="381" y="1483"/>
      <point x="834" y="1483" type="curve" smooth="yes"/>
    </contour>
    <contour>
      <point x="489" y="1335"/>
      <point x="300" y="1074"/>
      <point x="300" y="730" type="curve" smooth="yes"/>
      <point x="300" y="381"/>
      <point x="486" y="125"/>
      <point x="834" y="125" type="curve" smooth="yes"/>
      <point x="1191" y="125"/>
      <point x="1358" y="374"/>
      <point x="1358" y="730" type="curve" smooth="yes"/>
      <point x="1358" y="1082"/>
      <point x="1185" y="1335"/>
      <point x="834" y="1335" type="curve" smooth="yes"/>
    </contour>
    <contour>
      <point x="831" y="0" type="move" name="top"/>
    </contour>
  </outline>
</glyph>
<glyph name="P" format="1">
  <advance width="1273"/>
  <unicode hex="0050"/>
  <outline>
    <contour>
      <point x="563" y="1456" type="line" smooth="yes"/>
      <point x="918" y="1456"/>
      <point x="1199" y="1375"/>
      <point x="1199" y="1020" type="curve" smooth="yes"/>
      <point x="1199" y="705"/>
      <point x="932" y="587"/>
      <point x="616" y="587" type="curve" smooth="yes"/>
      <point x="374" y="587" type="line"/>
      <point x="374" y="0" type="line"/>
      <point x="202" y="0" type="line"/>
      <point x="202" y="1456" type="line"/>
    </contour>
    <contour>
      <point x="845" y="736"/>
      <point x="1015" y="810"/>
      <point x="1015" y="1018" type="curve" smooth="yes"/>
      <point x="1015" y="1258"/>
      <point x="827" y="1308"/>
      <point x="587" y="1308" type="curve" smooth="yes"/>
      <point x="374" y="1308" type="line"/>
      <point x="374" y="736" type="line"/>
      <point x="635" y="736" type="line" smooth="yes"/>
    </contour>
  </outline>
</glyph>
<glyph name="Q" format="1">
  <advance width="1661"/>
  <unicode hex="0051"/>
  <outline>
    <contour>
      <point x="295" y="736" type="curve" smooth="yes"/>
      <point x="295" y="389"/>
      <point x="481" y="137"/>
      <point x="827" y="137" type="curve" smooth="yes"/>
      <point x="1182" y="137"/>
      <point x="1352" y="382"/>
      <point x="1352" y="736" type="curve" smooth="yes"/>
      <point x="1352" y="1087"/>
      <point x="1178" y="1334"/>
      <point x="827" y="1334" type="curve" smooth="yes"/>
      <point x="481" y="1334"/>
      <point x="295" y="1081"/>
    </contour>
    <contour>
      <point x="1096" y="20" type="curve"/>
      <point x="1159" y="-110"/>
      <point x="1247" y="-213"/>
      <point x="1345" y="-304" type="curve"/>
      <point x="1233" y="-422" type="line"/>
      <point x="1116" y="-305"/>
      <point x="1007" y="-172"/>
      <point x="931" y="-9" type="curve"/>
      <point x="900" y="-15"/>
      <point x="864" y="-18"/>
      <point x="826" y="-18" type="curve" smooth="yes"/>
      <point x="373" y="-18"/>
      <point x="116" y="282"/>
      <point x="116" y="736" type="curve" smooth="yes"/>
      <point x="116" y="1183"/>
      <point x="389" y="1483"/>
      <point x="834" y="1483" type="curve" smooth="yes"/>
      <point x="1282" y="1483"/>
      <point x="1540" y="1183"/>
      <point x="1540" y="736" type="curve" smooth="yes"/>
      <point x="1540" y="374"/>
      <point x="1359" y="124"/>
    </contour>
  </outline>
</glyph>
<glyph name="R" format="1">
  <advance width="1374"/>
  <unicode hex="0052"/>
  <outline>
    <contour>
      <point x="374" y="652" type="line"/>
      <point x="374" y="0" type="line"/>
      <point x="202" y="0" type="line"/>
      <point x="202" y="1456" type="line"/>
      <point x="558" y="1456" type="line" smooth="yes"/>
      <point x="893" y="1456"/>
      <point x="1196" y="1410"/>
      <point x="1196" y="1074" type="curve" smooth="yes"/>
      <point x="1196" y="867"/>
      <point x="1052" y="758"/>
      <point x="886" y="715" type="curve"/>
      <point x="1022" y="670"/>
      <point x="1067" y="546"/>
      <point x="1121" y="410" type="curve" smooth="yes"/>
      <point x="1284" y="0" type="line"/>
      <point x="1096" y="0" type="line"/>
      <point x="943" y="419" type="line" smooth="yes"/>
      <point x="890" y="564"/>
      <point x="840" y="652"/>
      <point x="644" y="652" type="curve" smooth="yes"/>
    </contour>
    <contour>
      <point x="1014" y="1058" type="curve" smooth="yes"/>
      <point x="1014" y="1261"/>
      <point x="854" y="1308"/>
      <point x="651" y="1308" type="curve" smooth="yes"/>
      <point x="374" y="1308" type="line"/>
      <point x="374" y="799" type="line"/>
      <point x="640" y="799" type="line" smooth="yes"/>
      <point x="837" y="799"/>
      <point x="1014" y="859"/>
    </contour>
  </outline>
</glyph>
<glyph name="S" format="1">
  <advance width="1244"/>
  <unicode hex="0053"/>
  <outline>
    <contour>
      <point x="998" y="1217" type="line"/>
      <point x="928" y="1294"/>
      <point x="812" y="1335"/>
      <point x="667" y="1335" type="curve" smooth="yes"/>
      <point x="498" y="1335"/>
      <point x="324" y="1272"/>
      <point x="324" y="1105" type="curve" smooth="yes"/>
      <point x="324" y="920"/>
      <point x="550" y="856"/>
      <point x="686" y="801" type="curve" smooth="yes"/>
      <point x="882" y="722"/>
      <point x="1134" y="636"/>
      <point x="1134" y="364" type="curve" smooth="yes"/>
      <point x="1134" y="76"/>
      <point x="858" y="-23"/>
      <point x="572" y="-23" type="curve" smooth="yes"/>
      <point x="375" y="-23"/>
      <point x="218" y="44"/>
      <point x="137" y="161" type="curve"/>
      <point x="215" y="271" type="line"/>
      <point x="291" y="179"/>
      <point x="426" y="125"/>
      <point x="591" y="125" type="curve" smooth="yes"/>
      <point x="774" y="125"/>
      <point x="950" y="185"/>
      <point x="950" y="365" type="curve" smooth="yes"/>
      <point x="950" y="567"/>
      <point x="697" y="623"/>
      <point x="546" y="682" type="curve" smooth="yes"/>
      <point x="362" y="754"/>
      <point x="141" y="843"/>
      <point x="141" y="1095" type="curve" smooth="yes"/>
      <point x="141" y="1360"/>
      <point x="400" y="1483"/>
      <point x="666" y="1483" type="curve" smooth="yes"/>
      <point x="849" y="1483"/>
      <point x="1004" y="1437"/>
      <point x="1081" y="1329" type="curve"/>
    </contour>
    <contour>
      <point x="622" y="0" type="move" name="top"/>
    </contour>
    <contour>
      <point x="622" y="0" type="move" name="bottom"/>
    </contour>
  </outline>
</glyph>
<glyph name="T" format="1">
  <advance width="1174"/>
  <unicode hex="0054"/>
  <outline>
    <contour>
      <point x="501" y="1" type="line"/>
      <point x="501" y="1308" type="line"/>
      <point x="32" y="1308" type="line"/>
      <point x="32" y="1456" type="line"/>
      <point x="1145" y="1456" type="line"/>
      <point x="1145" y="1308" type="line"/>
      <point x="673" y="1308" type="line"/>
      <point x="673" y="1" type="line"/>
    </contour>
  </outline>
</glyph>
<glyph name="U" format="1">
  <advance width="1532"/>
  <unicode hex="0055"/>
  <outline>
    <contour>
      <point x="1333" y="178"/>
      <point x="1133" y="-23"/>
      <point x="756" y="-23" type="curve" smooth="yes"/>
      <point x="377" y="-23"/>
      <point x="191" y="166"/>
      <point x="191" y="541" type="curve" smooth="yes"/>
      <point x="191" y="1456" type="line"/>
      <point x="363" y="1456" type="line"/>
      <point x="363" y="546" type="line" smooth="yes"/>
      <point x="363" y="275"/>
      <point x="493" y="125"/>
      <point x="763" y="125" type="curve" smooth="yes"/>
      <point x="1017" y="125"/>
      <point x="1165" y="285"/>
      <point x="1165" y="539" type="curve" smooth="yes"/>
      <point x="1165" y="1456" type="line"/>
      <point x="1337" y="1456" type="line"/>
      <point x="1336" y="551" type="line"/>
    </contour>
    <contour>
      <point x="766" y="0" type="move" name="top"/>
    </contour>
    <contour>
      <point x="1379" y="10" type="move" name="ogonek"/>
    </contour>
  </outline>
</glyph>
<glyph name="V" format="1">
  <advance width="1336"/>
  <unicode hex="0056"/>
  <outline>
    <contour>
      <point x="201" y="1456" type="line"/>
      <point x="624" y="307" type="line"/>
      <point x="670" y="166" type="line"/>
      <point x="718" y="306" type="line"/>
      <point x="1145" y="1456" type="line"/>
      <point x="1324" y="1456" type="line"/>
      <point x="759" y="1" type="line"/>
      <point x="570" y="1" type="line"/>
      <point x="9" y="1456" type="line"/>
    </contour>
  </outline>
</glyph>
<glyph name="W" format="1">
  <advance width="2103"/>
  <unicode hex="0057"/>
  <outline>
    <contour>
      <point x="1052" y="1247" type="line"/>
      <point x="657" y="1" type="line"/>
      <point x="444" y="1" type="line"/>
      <point x="21" y="1456" type="line"/>
      <point x="207" y="1456" type="line"/>
      <point x="517" y="349" type="line"/>
      <point x="555" y="189" type="line"/>
      <point x="605" y="349" type="line"/>
      <point x="967" y="1456" type="line"/>
      <point x="1148" y="1456" type="line"/>
      <point x="1507" y="345" type="line"/>
      <point x="1553" y="190" type="line"/>
      <point x="1595" y="349" type="line"/>
      <point x="1900" y="1456" type="line"/>
      <point x="2080" y="1456" type="line"/>
      <point x="1657" y="0" type="line"/>
      <point x="1445" y="0" type="line"/>
    </contour>
  </outline>
</glyph>
<glyph name="X" format="1">
  <advance width="1304"/>
  <unicode hex="0058"/>
  <outline>
    <contour>
      <point x="215" y="0" type="line"/>
      <point x="11" y="0" type="line"/>
      <point x="548" y="741" type="line"/>
      <point x="47" y="1456" type="line"/>
      <point x="263" y="1456" type="line"/>
      <point x="662" y="854" type="line"/>
      <point x="1079" y="1456" type="line"/>
      <point x="1275" y="1456" type="line"/>
      <point x="764" y="742" type="line"/>
      <point x="1285" y="0" type="line"/>
      <point x="1072" y="0" type="line"/>
      <point x="646" y="630" type="line"/>
    </contour>
  </outline>
</glyph>
<glyph name="Y" format="1">
  <advance width="1266"/>
  <unicode hex="0059"/>
  <outline>
    <contour>
      <point x="543" y="0" type="line"/>
      <point x="543" y="582" type="line"/>
      <point x="10" y="1456" type="line"/>
      <point x="201" y="1456" type="line"/>
      <point x="632" y="727" type="line"/>
      <point x="1067" y="1456" type="line"/>
      <point x="1258" y="1456" type="line"/>
      <point x="715" y="585" type="line"/>
      <point x="715" y="0" type="line"/>
    </contour>
  </outline>
</glyph>
<glyph name="backslash" format="1">
  <advance width="706"/>
  <unicode hex="005C"/>
  <outline>
    <contour>
      <point x="617" y="-119" type="line"/>
      <point x="-70" y="1451" type="line"/>
      <point x="98" y="1451" type="line"/>
      <point x="783" y="-119" type="line"/>
    </contour>
  </outline>
</glyph>
<glyph name="a" format="1">
  <advance width="1230"/>
  <unicode hex="0061"/>
  <outline>
    <contour>
      <point x="415" y="909"/>
      <point x="287" y="691"/>
      <point x="287" y="448" type="curve" smooth="yes"/>
      <point x="287" y="223"/>
      <point x="404" y="117"/>
      <point x="547" y="117" type="curve" smooth="yes"/>
      <point x="705" y="117"/>
      <point x="807" y="226"/>
      <point x="861" y="293" type="curve"/>
      <point x="860" y="864" type="line"/>
      <point x="806" y="891"/>
      <point x="727" y="909"/>
      <point x="671" y="909" type="curve" smooth="yes"/>
    </contour>
    <contour>
      <point x="779" y="23"/>
      <point x="644" y="-23"/>
      <point x="522" y="-23" type="curve" smooth="yes"/>
      <point x="294" y="-23"/>
      <point x="120" y="161"/>
      <point x="120" y="438" type="curve" smooth="yes"/>
      <point x="120" y="760"/>
      <point x="305" y="1051"/>
      <point x="674" y="1051" type="curve" smooth="yes"/>
      <point x="798" y="1051"/>
      <point x="921" y="1027"/>
      <point x="1025" y="965" type="curve"/>
      <point x="1025" y="286" type="line" smooth="yes"/>
      <point x="1025" y="170"/>
      <point x="1098" y="139"/>
      <point x="1150" y="139" type="curve"/>
      <point x="1116" y="-4" type="line"/>
      <point x="1029" y="-4"/>
      <point x="921" y="36"/>
      <point x="894" y="156" type="curve"/>
    </contour>
    <contour>
      <point x="615" y="0" type="move" name="top"/>
    </contour>
    <contour>
      <point x="1107" y="10" type="move" name="ogonek"/>
    </contour>
  </outline>
</glyph>
<glyph name="b" format="1">
  <advance width="1231"/>
  <unicode hex="0062"/>
  <outline>
    <contour>
      <point x="628" y="-23" type="curve" smooth="yes"/>
      <point x="385" y="-23"/>
      <point x="168" y="71"/>
      <point x="168" y="71" type="curve"/>
      <point x="168" y="1505" type="line"/>
      <point x="333" y="1525" type="line"/>
      <point x="333" y="851" type="line"/>
      <point x="413" y="1000"/>
      <point x="573" y="1051"/>
      <point x="701" y="1051" type="curve" smooth="yes"/>
      <point x="995" y="1051"/>
      <point x="1133" y="849"/>
      <point x="1133" y="545" type="curve" smooth="yes"/>
      <point x="1133" y="215"/>
      <point x="945" y="-23"/>
    </contour>
    <contour>
      <point x="333" y="515" type="curve" smooth="yes"/>
      <point x="333" y="156" type="line"/>
      <point x="333" y="156"/>
      <point x="477" y="117"/>
      <point x="631" y="117" type="curve" smooth="yes"/>
      <point x="864" y="117"/>
      <point x="966" y="319"/>
      <point x="966" y="550" type="curve" smooth="yes"/>
      <point x="966" y="756"/>
      <point x="900" y="909"/>
      <point x="696" y="909" type="curve" smooth="yes"/>
      <point x="474" y="909"/>
      <point x="333" y="736"/>
    </contour>
  </outline>
</glyph>
<glyph name="d" format="1">
  <advance width="1233"/>
  <unicode hex="0064"/>
  <outline>
    <contour>
      <point x="963" y="32"/>
      <point x="927" y="111"/>
      <point x="923" y="177" type="curve"/>
      <point x="863" y="52"/>
      <point x="726" y="-24"/>
      <point x="565" y="-24" type="curve" smooth="yes"/>
      <point x="255" y="-24"/>
      <point x="94" y="194"/>
      <point x="94" y="501" type="curve" smooth="yes"/>
      <point x="94" y="810"/>
      <point x="256" y="1051"/>
      <point x="565" y="1051" type="curve" smooth="yes"/>
      <point x="709" y="1051"/>
      <point x="805" y="1034"/>
      <point x="910" y="933" type="curve"/>
      <point x="910" y="1506" type="line"/>
      <point x="1074" y="1526" type="line"/>
      <point x="1074" y="390" type="line" smooth="yes"/>
      <point x="1074" y="162"/>
      <point x="1118" y="76"/>
      <point x="1163" y="10" type="curve"/>
      <point x="1001" y="-13" type="line"/>
    </contour>
    <contour>
      <point x="363" y="911"/>
      <point x="270" y="732"/>
      <point x="270" y="507" type="curve" smooth="yes"/>
      <point x="270" y="283"/>
      <point x="358" y="118"/>
      <point x="583" y="118" type="curve" smooth="yes"/>
      <point x="822" y="118"/>
      <point x="910" y="296"/>
      <point x="910" y="534" type="curve"/>
      <point x="911" y="744" type="line"/>
      <point x="877" y="790"/>
      <point x="806" y="911"/>
      <point x="589" y="911" type="curve" smooth="yes"/>
    </contour>
    <contour>
      <point x="617" y="0" type="move" name="center"/>
    </contour>
  </outline>
</glyph>
<glyph name="e" format="1">
  <advance width="1073"/>
  <unicode hex="0065"/>
  <outline>
    <contour>
      <point x="596" y="123" type="curve" smooth="yes"/>
      <point x="735" y="123"/>
      <point x="856" y="187"/>
      <point x="930" y="276" type="curve"/>
      <point x="1013" y="170" type="line"/>
      <point x="895" y="46"/>
      <point x="758" y="-19"/>
      <point x="589" y="-19" type="curve" smooth="yes"/>
      <point x="325" y="-19"/>
      <point x="94" y="176"/>
      <point x="94" y="516" type="curve" smooth="yes"/>
      <point x="94" y="805"/>
      <point x="269" y="1056"/>
      <point x="592" y="1056" type="curve" smooth="yes"/>
      <point x="808" y="1056"/>
      <point x="946" y="918"/>
      <point x="946" y="751" type="curve" smooth="yes"/>
      <point x="946" y="506"/>
      <point x="655" y="425"/>
      <point x="289" y="371" type="curve"/>
      <point x="334" y="192"/>
      <point x="462" y="123"/>
    </contour>
    <contour>
      <point x="593" y="913" type="curve" smooth="yes"/>
      <point x="392" y="913"/>
      <point x="274" y="735"/>
      <point x="274" y="539" type="curve" smooth="yes"/>
      <point x="274" y="523"/>
      <point x="275" y="507"/>
      <point x="277" y="490" type="curve"/>
      <point x="563" y="534"/>
      <point x="783" y="594"/>
      <point x="783" y="755" type="curve" smooth="yes"/>
      <point x="783" y="846"/>
      <point x="714" y="913"/>
    </contour>
  </outline>
</glyph>
<glyph name="f" format="1">
  <advance width="689"/>
  <unicode hex="0066"/>
  <outline>
    <contour>
      <point x="252" y="1140" type="line" smooth="yes"/>
      <point x="252" y="1389"/>
      <point x="368" y="1502"/>
      <point x="541" y="1502" type="curve" smooth="yes"/>
      <point x="595" y="1502"/>
      <point x="655" y="1491"/>
      <point x="719" y="1469" type="curve"/>
      <point x="695" y="1362" type="line"/>
      <point x="658" y="1371"/>
      <point x="620" y="1379"/>
      <point x="584" y="1379" type="curve" smooth="yes"/>
      <point x="494" y="1379"/>
      <point x="417" y="1334"/>
      <point x="417" y="1163" type="curve" smooth="yes"/>
      <point x="417" y="1026" type="line"/>
      <point x="665" y="1026" type="line"/>
      <point x="665" y="919" type="line"/>
      <point x="417" y="919" type="line"/>
      <point x="418" y="59" type="line" smooth="yes"/>
      <point x="418" y="-191"/>
      <point x="331" y="-348"/>
      <point x="92" y="-379" type="curve"/>
      <point x="71" y="-258" type="line"/>
      <point x="191" y="-229"/>
      <point x="253" y="-124"/>
      <point x="253" y="36" type="curve" smooth="yes"/>
      <point x="252" y="919" type="line"/>
      <point x="51" y="919" type="line"/>
      <point x="51" y="1026" type="line"/>
      <point x="252" y="1026" type="line"/>
    </contour>
  </outline>
</glyph>
<glyph name="g" format="1">
  <advance width="1168"/>
  <unicode hex="0067"/>
  <outline>
    <contour>
      <point x="856" y="287" type="curve"/>
      <point x="855" y="876" type="line"/>
      <point x="801" y="903"/>
      <point x="722" y="910"/>
      <point x="666" y="910" type="curve" smooth="yes"/>
      <point x="401" y="910"/>
      <point x="268" y="679"/>
      <point x="268" y="431" type="curve" smooth="yes"/>
      <point x="268" y="220"/>
      <point x="405" y="117"/>
      <point x="539" y="117" type="curve" smooth="yes"/>
      <point x="697" y="117"/>
      <point x="782" y="205"/>
    </contour>
    <contour>
      <point x="1020" y="104" type="line" smooth="yes"/>
      <point x="1020" y="-248"/>
      <point x="846" y="-464"/>
      <point x="521" y="-464" type="curve" smooth="yes"/>
      <point x="423" y="-464"/>
      <point x="310" y="-445"/>
      <point x="185" y="-403" type="curve"/>
      <point x="204" y="-250" type="line"/>
      <point x="304" y="-300"/>
      <point x="410" y="-327"/>
      <point x="507" y="-327" type="curve" smooth="yes"/>
      <point x="699" y="-327"/>
      <point x="855" y="-223"/>
      <point x="855" y="6" type="curve" smooth="yes"/>
      <point x="855" y="143" type="line"/>
      <point x="745" y="26"/>
      <point x="622" y="-23"/>
      <point x="507" y="-23" type="curve" smooth="yes"/>
      <point x="290" y="-23"/>
      <point x="106" y="163"/>
      <point x="106" y="422" type="curve" smooth="yes"/>
      <point x="106" y="717"/>
      <point x="287" y="1052"/>
      <point x="668" y="1052" type="curve" smooth="yes"/>
      <point x="792" y="1052"/>
      <point x="916" y="1020"/>
      <point x="1020" y="958" type="curve"/>
    </contour>
  </outline>
</glyph>
<glyph name="h" format="1">
  <advance width="1237"/>
  <unicode hex="0068"/>
  <outline>
    <contour>
      <point x="870" y="265" type="line" smooth="yes"/>
      <point x="872" y="572" type="line" smooth="yes"/>
      <point x="872" y="585" type="line" smooth="yes"/>
      <point x="872" y="790"/>
      <point x="839" y="911"/>
      <point x="628" y="911" type="curve" smooth="yes"/>
      <point x="474" y="911"/>
      <point x="319" y="799"/>
      <point x="319" y="652" type="curve" smooth="yes"/>
      <point x="319" y="0" type="line"/>
      <point x="154" y="0" type="line"/>
      <point x="154" y="1506" type="line"/>
      <point x="318" y="1526" type="line"/>
      <point x="318" y="884" type="line"/>
      <point x="391" y="988"/>
      <point x="488" y="1051"/>
      <point x="656" y="1051" type="curve" smooth="yes"/>
      <point x="949" y="1051"/>
      <point x="1037" y="867"/>
      <point x="1037" y="577" type="curve" smooth="yes"/>
      <point x="1037" y="567" type="line" smooth="yes"/>
      <point x="1035" y="270" type="line" smooth="yes"/>
      <point x="1035" y="255" type="line" smooth="yes"/>
      <point x="1035" y="142"/>
      <point x="1046" y="117"/>
      <point x="1121" y="102" type="curve"/>
      <point x="1085" y="-24" type="line"/>
      <point x="897" y="-2"/>
      <point x="870" y="62"/>
      <point x="870" y="248" type="curve" smooth="yes"/>
    </contour>
    <contour>
      <point x="619" y="0" type="move" name="top"/>
    </contour>
    <contour>
      <point x="619" y="0" type="move" name="center"/>
    </contour>
  </outline>
</glyph>
<glyph name="i" format="1">
  <advance width="583"/>
  <unicode hex="0069"/>
  <outline>
    <contour>
      <point x="282" y="-5"/>
      <point x="167" y="89"/>
      <point x="167" y="300" type="curve" smooth="yes"/>
      <point x="167" y="1026" type="line"/>
      <point x="332" y="1026" type="line"/>
      <point x="332" y="305" type="line" smooth="yes"/>
      <point x="332" y="165"/>
      <point x="381" y="121"/>
      <point x="449" y="121" type="curve" smooth="yes"/>
      <point x="479" y="121"/>
      <point x="513" y="130"/>
      <point x="548" y="143" type="curve"/>
      <point x="571" y="25" type="line"/>
      <point x="521" y="5"/>
      <point x="471" y="-5"/>
      <point x="424" y="-5" type="curve" smooth="yes"/>
    </contour>
    <contour>
      <point x="197" y="1245"/>
      <point x="144" y="1279"/>
      <point x="144" y="1345" type="curve" smooth="yes"/>
      <point x="144" y="1411"/>
      <point x="198" y="1444"/>
      <point x="252" y="1444" type="curve" smooth="yes"/>
      <point x="306" y="1444"/>
      <point x="359" y="1410"/>
      <point x="359" y="1344" type="curve" smooth="yes"/>
      <point x="359" y="1278"/>
      <point x="305" y="1245"/>
      <point x="251" y="1245" type="curve" smooth="yes"/>
    </contour>
  </outline>
</glyph>
<glyph name="j" format="1">
  <advance width="533"/>
  <unicode hex="006A"/>
  <outline>
    <contour>
      <point x="182" y="1411"/>
      <point x="236" y="1444"/>
      <point x="290" y="1444" type="curve" smooth="yes"/>
      <point x="344" y="1444"/>
      <point x="397" y="1410"/>
      <point x="397" y="1344" type="curve" smooth="yes"/>
      <point x="397" y="1278"/>
      <point x="343" y="1245"/>
      <point x="289" y="1245" type="curve" smooth="yes"/>
      <point x="235" y="1245"/>
      <point x="182" y="1279"/>
      <point x="182" y="1345" type="curve" smooth="yes"/>
    </contour>
    <contour>
      <point x="-54" y="-285"/>
      <point x="-2" y="-298"/>
      <point x="31" y="-298" type="curve" smooth="yes"/>
      <point x="189" y="-298"/>
      <point x="205" y="-169"/>
      <point x="205" y="31" type="curve" smooth="yes"/>
      <point x="205" y="1026" type="line"/>
      <point x="370" y="1026" type="line"/>
      <point x="370" y="73" type="line" smooth="yes"/>
      <point x="370" y="-199"/>
      <point x="308" y="-429"/>
      <point x="51" y="-429" type="curve" smooth="yes"/>
      <point x="-15" y="-429"/>
      <point x="-76" y="-414"/>
      <point x="-111" y="-402" type="curve"/>
      <point x="-92" y="-271" type="line"/>
    </contour>
  </outline>
</glyph>
<glyph name="k" format="1">
  <advance width="1094"/>
  <unicode hex="006B"/>
  <outline>
    <contour>
      <point x="279" y="0" type="line"/>
      <point x="154" y="0" type="line"/>
      <point x="154" y="1506" type="line"/>
      <point x="319" y="1526" type="line"/>
      <point x="319" y="308" type="line"/>
      <point x="795" y="1026" type="line"/>
      <point x="974" y="1026" type="line"/>
      <point x="672" y="580" type="line"/>
      <point x="869" y="270" type="line" smooth="yes"/>
      <point x="940" y="158"/>
      <point x="1018" y="88"/>
      <point x="1091" y="79" type="curve"/>
      <point x="1022" y="-45" type="line"/>
      <point x="918" y="-26"/>
      <point x="826" y="55"/>
      <point x="741" y="189" type="curve" smooth="yes"/>
      <point x="580" y="445" type="line"/>
    </contour>
  </outline>
</glyph>
<glyph name="l" format="1">
  <advance width="686"/>
  <unicode hex="006C"/>
  <outline>
    <contour>
      <point x="262" y="-8"/>
      <point x="168" y="110"/>
      <point x="168" y="300" type="curve" smooth="yes"/>
      <point x="168" y="1506" type="line"/>
      <point x="333" y="1526" type="line"/>
      <point x="333" y="292" type="line" smooth="yes"/>
      <point x="333" y="165"/>
      <point x="385" y="117"/>
      <point x="472" y="117" type="curve" smooth="yes"/>
      <point x="510" y="117"/>
      <point x="565" y="130"/>
      <point x="615" y="146" type="curve"/>
      <point x="640" y="25" type="line"/>
      <point x="568" y="3"/>
      <point x="504" y="-8"/>
      <point x="448" y="-8" type="curve" smooth="yes"/>
    </contour>
    <contour>
      <point x="343" y="0" type="move" name="top"/>
    </contour>
    <contour>
      <point x="343" y="0" type="move" name="bottom"/>
    </contour>
    <contour>
      <point x="666" y="0" type="move" name="topright"/>
    </contour>
  </outline>
</glyph>
<glyph name="m" format="1">
  <advance width="1952"/>
  <unicode hex="006D"/>
  <outline>
    <contour>
      <point x="890" y="0" type="line"/>
      <point x="887" y="572" type="line"/>
      <point x="887" y="785"/>
      <point x="866" y="911"/>
      <point x="651" y="911" type="curve" smooth="yes"/>
      <point x="497" y="911"/>
      <point x="345" y="799"/>
      <point x="345" y="652" type="curve" smooth="yes"/>
      <point x="345" y="0" type="line"/>
      <point x="180" y="0" type="line"/>
      <point x="180" y="699" type="line" smooth="yes"/>
      <point x="180" y="784"/>
      <point x="160" y="977"/>
      <point x="154" y="1026" type="curve"/>
      <point x="321" y="1026" type="line"/>
      <point x="343" y="884" type="line"/>
      <point x="416" y="988"/>
      <point x="511" y="1051"/>
      <point x="679" y="1051" type="curve" smooth="yes"/>
      <point x="846" y="1051"/>
      <point x="944" y="991"/>
      <point x="997" y="885" type="curve"/>
      <point x="1070" y="988"/>
      <point x="1181" y="1051"/>
      <point x="1348" y="1051" type="curve" smooth="yes"/>
      <point x="1644" y="1051"/>
      <point x="1722" y="847"/>
      <point x="1722" y="567" type="curve" smooth="yes"/>
      <point x="1722" y="407" type="line" smooth="yes"/>
      <point x="1722" y="161"/>
      <point x="1731" y="104"/>
      <point x="1846" y="104" type="curve" smooth="yes"/>
      <point x="1857" y="104"/>
      <point x="1868" y="105"/>
      <point x="1881" y="106" type="curve"/>
      <point x="1867" y="-10" type="line"/>
      <point x="1829" y="-17"/>
      <point x="1795" y="-21"/>
      <point x="1766" y="-21" type="curve" smooth="yes"/>
      <point x="1576" y="-21"/>
      <point x="1558" y="125"/>
      <point x="1558" y="364" type="curve"/>
      <point x="1559" y="572" type="line"/>
      <point x="1559" y="785"/>
      <point x="1518" y="911"/>
      <point x="1317" y="911" type="curve" smooth="yes"/>
      <point x="1178" y="911"/>
      <point x="1112" y="839"/>
      <point x="1043" y="725" type="curve"/>
      <point x="1050" y="677"/>
      <point x="1052" y="624"/>
      <point x="1052" y="567" type="curve" smooth="yes"/>
      <point x="1052" y="0" type="line"/>
    </contour>
  </outline>
</glyph>
<glyph name="n" format="1">
  <advance width="1263"/>
  <unicode hex="006E"/>
  <outline>
    <contour>
      <point x="881" y="254" type="line" smooth="yes"/>
      <point x="883" y="572" type="line" smooth="yes"/>
      <point x="883" y="585" type="line" smooth="yes"/>
      <point x="883" y="790"/>
      <point x="850" y="911"/>
      <point x="639" y="911" type="curve" smooth="yes"/>
      <point x="485" y="911"/>
      <point x="345" y="799"/>
      <point x="345" y="652" type="curve" smooth="yes"/>
      <point x="345" y="0" type="line"/>
      <point x="180" y="0" type="line"/>
      <point x="180" y="699" type="line" smooth="yes"/>
      <point x="180" y="784"/>
      <point x="146" y="995"/>
      <point x="140" y="1026" type="curve"/>
      <point x="307" y="1026" type="line"/>
      <point x="333" y="883" type="line"/>
      <point x="406" y="987"/>
      <point x="499" y="1051"/>
      <point x="667" y="1051" type="curve" smooth="yes"/>
      <point x="960" y="1051"/>
      <point x="1048" y="867"/>
      <point x="1048" y="576" type="curve" smooth="yes"/>
      <point x="1048" y="567" type="line" smooth="yes"/>
      <point x="1046" y="259" type="line" smooth="yes"/>
      <point x="1045" y="108"/>
      <point x="1114" y="117"/>
      <point x="1192" y="101" type="curve"/>
      <point x="1156" y="-25" type="line"/>
      <point x="955" y="-22"/>
      <point x="881" y="53"/>
      <point x="881" y="248" type="curve" smooth="yes"/>
    </contour>
    <contour>
      <point x="632" y="0" type="move" name="top"/>
    </contour>
    <contour>
      <point x="632" y="0" type="move" name="bottom"/>
    </contour>
  </outline>
</glyph>
<glyph name="o" format="1">
  <advance width="1238"/>
  <unicode hex="006F"/>
  <outline>
    <contour>
      <point x="624" y="1051" type="curve" smooth="yes"/>
      <point x="954" y="1051"/>
      <point x="1144" y="840"/>
      <point x="1144" y="513" type="curve" smooth="yes"/>
      <point x="1144" y="192"/>
      <point x="942" y="-23"/>
      <point x="620" y="-23" type="curve" smooth="yes"/>
      <point x="292" y="-23"/>
      <point x="94" y="186"/>
      <point x="94" y="511" type="curve" smooth="yes"/>
      <point x="94" y="836"/>
      <point x="299" y="1051"/>
    </contour>
    <contour>
      <point x="970" y="511" type="curve" smooth="yes"/>
      <point x="970" y="745"/>
      <point x="855" y="910"/>
      <point x="620" y="910" type="curve" smooth="yes"/>
      <point x="390" y="910"/>
      <point x="267" y="738"/>
      <point x="267" y="509" type="curve" smooth="yes"/>
      <point x="267" y="279"/>
      <point x="394" y="117"/>
      <point x="624" y="117" type="curve" smooth="yes"/>
      <point x="855" y="117"/>
      <point x="970" y="282"/>
    </contour>
  </outline>
</glyph>
<glyph name="p" format="1">
  <advance width="1233"/>
  <unicode hex="0070"/>
  <outline>
    <contour>
      <point x="323" y="880" type="line"/>
      <point x="397" y="979"/>
      <point x="507" y="1052"/>
      <point x="668" y="1052" type="curve" smooth="yes"/>
      <point x="978" y="1052"/>
      <point x="1139" y="834"/>
      <point x="1139" y="527" type="curve" smooth="yes"/>
      <point x="1139" y="218"/>
      <point x="977" y="-23"/>
      <point x="668" y="-23" type="curve" smooth="yes"/>
      <point x="524" y="-23"/>
      <point x="428" y="-6"/>
      <point x="323" y="95" type="curve"/>
      <point x="323" y="-427" type="line"/>
      <point x="159" y="-427" type="line"/>
      <point x="159" y="758" type="line" smooth="yes"/>
      <point x="159" y="846"/>
      <point x="145" y="979"/>
      <point x="140" y="1026" type="curve"/>
      <point x="307" y="1026" type="line"/>
    </contour>
    <contour>
      <point x="963" y="521" type="curve" smooth="yes"/>
      <point x="963" y="745"/>
      <point x="875" y="910"/>
      <point x="650" y="910" type="curve" smooth="yes"/>
      <point x="411" y="910"/>
      <point x="323" y="732"/>
      <point x="323" y="494" type="curve"/>
      <point x="322" y="284" type="line"/>
      <point x="356" y="238"/>
      <point x="427" y="117"/>
      <point x="644" y="117" type="curve" smooth="yes"/>
      <point x="870" y="117"/>
      <point x="963" y="296"/>
    </contour>
  </outline>
</glyph>
<glyph name="q" format="1">
  <advance width="1300"/>
  <unicode hex="0071"/>
  <outline>
    <contour>
      <point x="1085" y="1026" type="line"/>
      <point x="1081" y="962"/>
      <point x="1078" y="876"/>
      <point x="1078" y="813" type="curve" smooth="yes"/>
      <point x="1077" y="-295" type="line"/>
      <point x="1107" y="-235"/>
      <point x="1299" y="-78"/>
      <point x="1299" y="-78" type="curve"/>
      <point x="1461" y="-144" type="line"/>
      <point x="1374" y="-220"/>
      <point x="1127" y="-426"/>
      <point x="1047" y="-521" type="curve"/>
      <point x="913" y="-476" type="line"/>
      <point x="913" y="148" type="line"/>
      <point x="834" y="43"/>
      <point x="717" y="-23"/>
      <point x="545" y="-23" type="curve" smooth="yes"/>
      <point x="241" y="-23"/>
      <point x="93" y="203"/>
      <point x="93" y="506" type="curve" smooth="yes"/>
      <point x="93" y="815"/>
      <point x="257" y="1051"/>
      <point x="567" y="1051" type="curve" smooth="yes"/>
      <point x="725" y="1051"/>
      <point x="842" y="989"/>
      <point x="913" y="898" type="curve"/>
      <point x="918" y="1026" type="line"/>
    </contour>
    <contour>
      <point x="913" y="543" type="curve" smooth="yes"/>
      <point x="913" y="759"/>
      <point x="808" y="917"/>
      <point x="593" y="917" type="curve" smooth="yes"/>
      <point x="364" y="917"/>
      <point x="266" y="736"/>
      <point x="266" y="507" type="curve" smooth="yes"/>
      <point x="266" y="284"/>
      <point x="359" y="109"/>
      <point x="582" y="109" type="curve" smooth="yes"/>
      <point x="826" y="109"/>
      <point x="913" y="301"/>
    </contour>
  </outline>
</glyph>
<glyph name="r" format="1">
  <advance width="795"/>
  <unicode hex="0072"/>
  <outline>
    <contour>
      <point x="731" y="883" type="line"/>
      <point x="703" y="898"/>
      <point x="660" y="907"/>
      <point x="616" y="907" type="curve" smooth="yes"/>
      <point x="431" y="907"/>
      <point x="347" y="755"/>
      <point x="347" y="568" type="curve" smooth="yes"/>
      <point x="347" y="0" type="line"/>
      <point x="182" y="0" type="line"/>
      <point x="182" y="779" type="line" smooth="yes"/>
      <point x="182" y="861"/>
      <point x="162" y="980"/>
      <point x="156" y="1026" type="curve"/>
      <point x="321" y="1026" type="line"/>
      <point x="347" y="871" type="line"/>
      <point x="395" y="968"/>
      <point x="487" y="1050"/>
      <point x="621" y="1050" type="curve" smooth="yes"/>
      <point x="660" y="1050"/>
      <point x="696" y="1046"/>
      <point x="729" y="1038" type="curve"/>
    </contour>
    <contour>
      <point x="398" y="0" type="move" name="top"/>
    </contour>
    <contour>
      <point x="398" y="0" type="move" name="bottom"/>
    </contour>
  </outline>
</glyph>
<glyph name="s" format="1">
  <advance width="1001"/>
  <unicode hex="0073"/>
  <outline>
    <contour>
      <point x="636" y="112"/>
      <point x="731" y="150"/>
      <point x="731" y="272" type="curve" smooth="yes"/>
      <point x="731" y="404"/>
      <point x="555" y="431"/>
      <point x="448" y="463" type="curve" smooth="yes"/>
      <point x="283" y="512"/>
      <point x="114" y="570"/>
      <point x="114" y="771" type="curve" smooth="yes"/>
      <point x="114" y="967"/>
      <point x="294" y="1056"/>
      <point x="494" y="1056" type="curve" smooth="yes"/>
      <point x="612" y="1056"/>
      <point x="756" y="1034"/>
      <point x="854" y="975" type="curve"/>
      <point x="807" y="838" type="line"/>
      <point x="752" y="874"/>
      <point x="606" y="917"/>
      <point x="493" y="917" type="curve" smooth="yes"/>
      <point x="382" y="917"/>
      <point x="285" y="881"/>
      <point x="285" y="774" type="curve" smooth="yes"/>
      <point x="285" y="653"/>
      <point x="455" y="625"/>
      <point x="550" y="596" type="curve" smooth="yes"/>
      <point x="710" y="547"/>
      <point x="894" y="492"/>
      <point x="894" y="284" type="curve" smooth="yes"/>
      <point x="894" y="52"/>
      <point x="731" y="-26"/>
      <point x="544" y="-26" type="curve" smooth="yes"/>
      <point x="388" y="-26"/>
      <point x="220" y="6"/>
      <point x="114" y="71" type="curve"/>
      <point x="137" y="222" type="line"/>
      <point x="212" y="165"/>
      <point x="388" y="112"/>
      <point x="521" y="112" type="curve" smooth="yes"/>
    </contour>
    <contour>
      <point x="501" y="0" type="move" name="top"/>
    </contour>
    <contour>
      <point x="501" y="0" type="move" name="bottom"/>
    </contour>
  </outline>
</glyph>
<glyph name="t" format="1">
  <advance width="793"/>
  <unicode hex="0074"/>
  <outline>
    <contour>
      <point x="233" y="300" type="line" smooth="yes"/>
      <point x="233" y="110"/>
      <point x="375" y="-8"/>
      <point x="565" y="-8" type="curve" smooth="yes"/>
      <point x="622" y="-8"/>
      <point x="683" y="3"/>
      <point x="746" y="25" type="curve"/>
      <point x="727" y="142" type="line"/>
      <point x="680" y="124"/>
      <point x="630" y="113"/>
      <point x="584" y="113" type="curve" smooth="yes"/>
      <point x="483" y="113"/>
      <point x="398" y="163"/>
      <point x="398" y="292" type="curve" smooth="yes"/>
      <point x="398" y="919" type="line"/>
      <point x="654" y="919" type="line"/>
      <point x="654" y="1026" type="line"/>
      <point x="398" y="1026" type="line"/>
      <point x="398" y="1345" type="line"/>
      <point x="238" y="1298" type="line"/>
      <point x="238" y="1026" type="line"/>
      <point x="30" y="1026" type="line"/>
      <point x="30" y="919" type="line"/>
      <point x="233" y="919" type="line"/>
    </contour>
  </outline>
</glyph>
<glyph name="u" format="1">
  <advance width="1215"/>
  <unicode hex="0075"/>
  <outline>
    <contour>
      <point x="318" y="365" type="line" smooth="yes"/>
      <point x="313" y="169"/>
      <point x="434.0" y="118.0"/>
      <point x="555.0" y="118.0" type="curve" smooth="yes"/>
      <point x="699.0" y="118.0"/>
      <point x="857.0" y="222.0"/>
      <point x="857.0" y="418.0" type="curve" smooth="yes"/>
      <point x="857.0" y="1026.0" type="line"/>
      <point x="1022.0" y="1026.0" type="line"/>
      <point x="1022.0" y="286.0" type="line" smooth="yes"/>
      <point x="1022.0" y="170.0"/>
      <point x="1094.0" y="139.0"/>
      <point x="1146.0" y="139.0" type="curve"/>
      <point x="1111.0" y="-4.0" type="line"/>
      <point x="1014.0" y="-4.0"/>
      <point x="916.0" y="44.0"/>
      <point x="889.0" y="155.0" type="curve"/>
      <point x="807.0" y="38.0"/>
      <point x="688.0" y="-24.0"/>
      <point x="530.0" y="-24.0" type="curve" smooth="yes"/>
      <point x="336.0" y="-24.0"/>
      <point x="145" y="80"/>
      <point x="153" y="365" type="curve" smooth="yes"/>
      <point x="159" y="582" type="line" smooth="yes"/>
      <point x="168" y="871"/>
      <point x="120.0" y="1026.0"/>
      <point x="120.0" y="1026.0" type="curve"/>
      <point x="285.0" y="1026.0" type="line"/>
      <point x="285.0" y="1026.0"/>
      <point x="333" y="911"/>
      <point x="324" y="595" type="curve" smooth="yes"/>
    </contour>
  </outline>
</glyph>
<glyph name="v" format="1">
  <advance width="1063"/>
  <unicode hex="0076"/>
  <outline>
    <contour>
      <point x="14" y="1026" type="line"/>
      <point x="196" y="1026" type="line"/>
      <point x="477" y="336" type="line" smooth="yes"/>
      <point x="496" y="290"/>
      <point x="519" y="217"/>
      <point x="535" y="163" type="curve"/>
      <point x="556" y="232" type="line" smooth="yes"/>
      <point x="565" y="264"/>
      <point x="579" y="309"/>
      <point x="591" y="336" type="curve"/>
      <point x="867" y="1026" type="line"/>
      <point x="1044" y="1026" type="line"/>
      <point x="611" y="0" type="line"/>
      <point x="443" y="0" type="line"/>
    </contour>
  </outline>
</glyph>
<glyph name="w" format="1">
  <advance width="1695"/>
  <unicode hex="0077"/>
  <outline>
    <contour>
      <point x="201" y="1026" type="line"/>
      <point x="450" y="284" type="line" smooth="yes"/>
      <point x="460" y="255"/>
      <point x="469" y="217"/>
      <point x="479" y="186" type="curve"/>
      <point x="489" y="214"/>
      <point x="498" y="249"/>
      <point x="510" y="276" type="curve"/>
      <point x="775" y="1026" type="line"/>
      <point x="941" y="1026" type="line"/>
      <point x="1189" y="286" type="line" smooth="yes"/>
      <point x="1199" y="258"/>
      <point x="1208" y="219"/>
      <point x="1218" y="189" type="curve"/>
      <point x="1231" y="219"/>
      <point x="1240" y="255"/>
      <point x="1252" y="287" type="curve"/>
      <point x="1492" y="1026" type="line"/>
      <point x="1661" y="1026" type="line"/>
      <point x="1293" y="0" type="line"/>
      <point x="1133" y="0" type="line"/>
      <point x="852" y="831" type="line"/>
      <point x="552" y="0" type="line"/>
      <point x="390" y="0" type="line"/>
      <point x="25" y="1026" type="line"/>
    </contour>
  </outline>
</glyph>
<glyph name="x" format="1">
  <advance width="1115"/>
  <unicode hex="0078"/>
  <outline>
    <contour>
      <point x="462" y="514" type="line"/>
      <point x="81" y="1026" type="line"/>
      <point x="284" y="1026" type="line"/>
      <point x="568" y="614" type="line"/>
      <point x="861" y="1026" type="line"/>
      <point x="1040" y="1026" type="line"/>
      <point x="662" y="518" type="line"/>
      <point x="1053" y="0" type="line"/>
      <point x="852" y="0" type="line"/>
      <point x="553" y="418" type="line"/>
      <point x="252" y="0" type="line"/>
      <point x="62" y="0" type="line"/>
    </contour>
  </outline>
</glyph>
<glyph name="y" format="1">
  <advance width="1217"/>
  <unicode hex="0079"/>
  <outline>
    <contour>
      <point x="322" y="399" type="line" smooth="yes"/>
      <point x="322" y="211"/>
      <point x="393" y="117"/>
      <point x="578" y="117" type="curve" smooth="yes"/>
      <point x="770" y="117"/>
      <point x="878" y="246"/>
      <point x="878" y="436" type="curve" smooth="yes"/>
      <point x="878" y="1026" type="line"/>
      <point x="1043" y="1026" type="line"/>
      <point x="1043" y="98" type="line" smooth="yes"/>
      <point x="1043" y="-250"/>
      <point x="867" y="-464"/>
      <point x="544" y="-464" type="curve" smooth="yes"/>
      <point x="446" y="-464"/>
      <point x="333" y="-445"/>
      <point x="208" y="-403" type="curve"/>
      <point x="227" y="-250" type="line"/>
      <point x="327" y="-300"/>
      <point x="433" y="-327"/>
      <point x="530" y="-327" type="curve" smooth="yes"/>
      <point x="722" y="-327"/>
      <point x="878" y="-223"/>
      <point x="878" y="6" type="curve" smooth="yes"/>
      <point x="878" y="135" type="line"/>
      <point x="801" y="30"/>
      <point x="688" y="-23"/>
      <point x="540" y="-23" type="curve" smooth="yes"/>
      <point x="279" y="-23"/>
      <point x="157" y="140"/>
      <point x="157" y="399" type="curve" smooth="yes"/>
      <point x="157" y="1026" type="line"/>
      <point x="322" y="1026" type="line"/>
    </contour>
  </outline>
</glyph>
<glyph name="z" format="1">
  <advance width="1005"/>
  <unicode hex="007A"/>
  <outline>
    <contour>
      <point x="85" y="89" type="line"/>
      <point x="685" y="891" type="line"/>
      <point x="111" y="891" type="line"/>
      <point x="111" y="1026" type="line"/>
      <point x="908" y="1026" type="line"/>
      <point x="908" y="939" type="line"/>
      <point x="310" y="134" type="line"/>
      <point x="925" y="134" type="line"/>
      <point x="925" y="0" type="line"/>
      <point x="85" y="0" type="line"/>
    </contour>
  </outline>
</glyph>
<glyph name="braceleft" format="1">
  <advance width="627"/>
  <unicode hex="007B"/>
  <outline>
    <contour>
      <point x="360" y="552"/>
      <point x="405" y="455"/>
      <point x="405" y="325" type="curve" smooth="yes"/>
      <point x="405" y="261"/>
      <point x="403" y="172"/>
      <point x="403" y="107" type="curve" smooth="yes"/>
      <point x="403" y="-2"/>
      <point x="411" y="-95"/>
      <point x="488" y="-122" type="curve" smooth="yes"/>
      <point x="509" y="-129"/>
      <point x="535" y="-133"/>
      <point x="566" y="-133" type="curve"/>
      <point x="566" y="-259" type="line"/>
      <point x="380" y="-251"/>
      <point x="243" y="-183"/>
      <point x="243" y="11" type="curve" smooth="yes"/>
      <point x="244" y="274" type="line" smooth="yes"/>
      <point x="244" y="422"/>
      <point x="222" y="520"/>
      <point x="86" y="534" type="curve"/>
      <point x="85" y="656" type="line"/>
      <point x="205" y="667"/>
      <point x="247" y="759"/>
      <point x="247" y="890" type="curve"/>
      <point x="246" y="932"/>
      <point x="245" y="974"/>
      <point x="245" y="1016" type="curve" smooth="yes"/>
      <point x="245" y="1058"/>
      <point x="244" y="1101"/>
      <point x="243" y="1143" type="curve"/>
      <point x="243" y="1356"/>
      <point x="350" y="1451"/>
      <point x="566" y="1451" type="curve"/>
      <point x="566" y="1325" type="line"/>
      <point x="454" y="1322"/>
      <point x="409" y="1273"/>
      <point x="409" y="1157" type="curve" smooth="yes"/>
      <point x="408" y="868" type="line" smooth="yes"/>
      <point x="408" y="737"/>
      <point x="351" y="640"/>
      <point x="268" y="595" type="curve"/>
    </contour>
  </outline>
</glyph>
<glyph name="bar" format="1">
  <advance width="500"/>
  <unicode hex="007C"/>
  <outline>
    <contour>
      <point x="168" y="-491" type="line"/>
      <point x="168" y="1545" type="line"/>
      <point x="325" y="1545" type="line"/>
      <point x="325" y="-491" type="line"/>
    </contour>
  </outline>
</glyph>
<glyph name="exclamdown" format="1">
  <advance width="737"/>
  <unicode hex="00A1"/>
  <outline>
    <contour>
      <point x="260" y="1090" type="line"/>
      <point x="474" y="1090" type="line"/>
      <point x="474" y="884" type="line"/>
      <point x="260" y="884" type="line"/>
    </contour>
    <contour>
      <point x="426" y="-384" type="line"/>
      <point x="260" y="-384" type="line"/>
      <point x="260" y="694" type="line"/>
      <point x="426" y="694" type="line"/>
    </contour>
  </outline>
</glyph>
<glyph name="cent" format="1">
  <advance width="1189"/>
  <unicode hex="00A2"/>
  <outline>
    <contour>
      <point x="976" y="87" type="line"/>
      <point x="849" y="11"/>
      <point x="723" y="-23"/>
      <point x="609" y="-23" type="curve" smooth="yes"/>
      <point x="315" y="-23"/>
      <point x="94" y="193"/>
      <point x="94" y="503" type="curve" smooth="yes"/>
      <point x="94" y="824"/>
      <point x="289" y="1051"/>
      <point x="610" y="1051" type="curve" smooth="yes"/>
      <point x="769" y="1051"/>
      <point x="892" y="1002"/>
      <point x="960" y="912" type="curve"/>
      <point x="883" y="801" type="line"/>
      <point x="826" y="872"/>
      <point x="738" y="909"/>
      <point x="619" y="909" type="curve" smooth="yes"/>
      <point x="389" y="909"/>
      <point x="267" y="737"/>
      <point x="267" y="508" type="curve" smooth="yes"/>
      <point x="267" y="258"/>
      <point x="412" y="117"/>
      <point x="616" y="117" type="curve" smooth="yes"/>
      <point x="714" y="117"/>
      <point x="825" y="146"/>
      <point x="940" y="225" type="curve"/>
    </contour>
    <contour>
      <point x="666" y="-235" type="line"/>
      <point x="553" y="-235" type="line"/>
      <point x="553" y="1281" type="line"/>
      <point x="666" y="1281" type="line"/>
    </contour>
  </outline>
</glyph>
<glyph name="currency" format="1">
  <advance width="1238"/>
  <unicode hex="00A4"/>
  <outline>
    <contour>
      <point x="277" y="353"/>
      <point x="188" y="476"/>
      <point x="188" y="659" type="curve" smooth="yes"/>
      <point x="188" y="827"/>
      <point x="261" y="947"/>
      <point x="372" y="1006" type="curve"/>
      <point x="221" y="1285" type="line"/>
      <point x="261" y="1301" type="line"/>
      <point x="411" y="1023" type="line"/>
      <point x="452" y="1042"/>
      <point x="504" y="1051"/>
      <point x="566" y="1051" type="curve" smooth="yes"/>
      <point x="606" y="1051"/>
      <point x="648" y="1045"/>
      <point x="691" y="1034" type="curve"/>
      <point x="793" y="1301" type="line"/>
      <point x="835" y="1285" type="line"/>
      <point x="732" y="1018" type="line"/>
      <point x="860" y="960"/>
      <point x="938" y="840"/>
      <point x="938" y="663" type="curve" smooth="yes"/>
      <point x="938" y="511"/>
      <point x="873" y="397"/>
      <point x="780" y="336" type="curve"/>
      <point x="931" y="56" type="line"/>
      <point x="896" y="40" type="line"/>
      <point x="747" y="316" type="line"/>
      <point x="694" y="291"/>
      <point x="636" y="274"/>
      <point x="560" y="274" type="curve" smooth="yes"/>
      <point x="515" y="274"/>
      <point x="479" y="278"/>
      <point x="450" y="287" type="curve"/>
      <point x="354" y="40" type="line"/>
      <point x="317" y="56" type="line"/>
      <point x="410" y="301" type="line"/>
    </contour>
    <contour>
      <point x="746" y="345"/>
      <point x="844" y="480"/>
      <point x="844" y="660" type="curve" smooth="yes"/>
      <point x="844" y="847"/>
      <point x="749" y="979"/>
      <point x="561" y="979" type="curve" smooth="yes"/>
      <point x="417" y="979"/>
      <point x="334" y="890"/>
      <point x="299" y="780" type="curve" smooth="yes"/>
      <point x="287" y="742"/>
      <point x="281" y="702"/>
      <point x="281" y="660" type="curve" smooth="yes"/>
      <point x="281" y="518"/>
      <point x="344" y="417"/>
      <point x="441" y="370" type="curve" smooth="yes"/>
      <point x="476" y="353"/>
      <point x="518" y="345"/>
      <point x="565" y="345" type="curve" smooth="yes"/>
    </contour>
  </outline>
</glyph>
<glyph name="yen" format="1">
  <advance width="1189"/>
  <unicode hex="00A5"/>
  <outline>
    <contour>
      <point x="680" y="0" type="line"/>
      <point x="508" y="0" type="line"/>
      <point x="508" y="283" type="line"/>
      <point x="109" y="283" type="line"/>
      <point x="98" y="423" type="line"/>
      <point x="506" y="423" type="line"/>
      <point x="506" y="574" type="line"/>
      <point x="103" y="574" type="line"/>
      <point x="103" y="716" type="line"/>
      <point x="471" y="716" type="line"/>
      <point x="26" y="1420" type="line"/>
      <point x="231" y="1420" type="line"/>
      <point x="354" y="1212"/>
      <point x="481" y="1007"/>
      <point x="601" y="796" type="curve"/>
      <point x="727" y="1002"/>
      <point x="849" y="1212"/>
      <point x="973" y="1420" type="curve"/>
      <point x="1159" y="1420" type="line"/>
      <point x="704" y="716" type="line"/>
      <point x="1068" y="716" type="line"/>
      <point x="1068" y="574" type="line"/>
      <point x="677" y="574" type="line"/>
      <point x="677" y="423" type="line"/>
      <point x="1071" y="423" type="line"/>
      <point x="1071" y="283" type="line"/>
      <point x="680" y="283" type="line"/>
    </contour>
  </outline>
</glyph>
<glyph name="section" format="1">
  <advance width="1097"/>
  <unicode hex="00A7"/>
  <outline>
    <contour>
      <point x="374" y="975" type="curve"/>
      <point x="289" y="1027"/>
      <point x="221" y="1090"/>
      <point x="221" y="1217" type="curve" smooth="yes"/>
      <point x="221" y="1416"/>
      <point x="403" y="1493"/>
      <point x="603" y="1493" type="curve" smooth="yes"/>
      <point x="696" y="1493"/>
      <point x="757" y="1475"/>
      <point x="832" y="1452" type="curve"/>
      <point x="834" y="1304" type="line"/>
      <point x="774" y="1332"/>
      <point x="692" y="1356"/>
      <point x="608" y="1356" type="curve" smooth="yes"/>
      <point x="499" y="1356"/>
      <point x="393" y="1328"/>
      <point x="393" y="1221" type="curve" smooth="yes"/>
      <point x="393" y="1140"/>
      <point x="448" y="1104"/>
      <point x="506" y="1072" type="curve" smooth="yes"/>
      <point x="636" y="1001"/>
      <point x="812" y="957"/>
      <point x="886" y="832" type="curve" smooth="yes"/>
      <point x="902" y="804"/>
      <point x="911" y="772"/>
      <point x="911" y="737" type="curve" smooth="yes"/>
      <point x="911" y="606"/>
      <point x="808" y="531"/>
      <point x="725" y="480" type="curve"/>
      <point x="810" y="437"/>
      <point x="888" y="378"/>
      <point x="888" y="252" type="curve" smooth="yes"/>
      <point x="888" y="146"/>
      <point x="831" y="76"/>
      <point x="765" y="30" type="curve" smooth="yes"/>
      <point x="696" y="-18"/>
      <point x="595" y="-48"/>
      <point x="482" y="-48" type="curve" smooth="yes"/>
      <point x="380" y="-48"/>
      <point x="288" y="-27"/>
      <point x="212" y="4" type="curve"/>
      <point x="210" y="153" type="line"/>
      <point x="293" y="116"/>
      <point x="373" y="89"/>
      <point x="477" y="89" type="curve" smooth="yes"/>
      <point x="578" y="89"/>
      <point x="663" y="119"/>
      <point x="699" y="182" type="curve" smooth="yes"/>
      <point x="710" y="201"/>
      <point x="715" y="221"/>
      <point x="715" y="243" type="curve" smooth="yes"/>
      <point x="715" y="322"/>
      <point x="652" y="352"/>
      <point x="594" y="379" type="curve" smooth="yes"/>
      <point x="568" y="391"/>
      <point x="538" y="404"/>
      <point x="505" y="418" type="curve" smooth="yes"/>
      <point x="421" y="454" type="line" smooth="yes"/>
      <point x="327" y="494"/>
      <point x="240" y="547"/>
      <point x="202" y="640" type="curve" smooth="yes"/>
      <point x="191" y="667"/>
      <point x="185" y="697"/>
      <point x="185" y="729" type="curve" smooth="yes"/>
      <point x="185" y="859"/>
      <point x="286" y="931"/>
    </contour>
    <contour>
      <point x="591" y="547" type="curve"/>
      <point x="640" y="578"/>
      <point x="693" y="615"/>
      <point x="720" y="668" type="curve" smooth="yes"/>
      <point x="729" y="685"/>
      <point x="733" y="703"/>
      <point x="733" y="723" type="curve" smooth="yes"/>
      <point x="733" y="846"/>
      <point x="575" y="868"/>
      <point x="495" y="912" type="curve"/>
      <point x="435" y="880"/>
      <point x="362" y="831"/>
      <point x="362" y="741" type="curve" smooth="yes"/>
      <point x="362" y="653"/>
      <point x="434" y="616"/>
      <point x="498" y="587" type="curve" smooth="yes"/>
      <point x="526" y="574"/>
      <point x="557" y="561"/>
    </contour>
  </outline>
</glyph>
<glyph name="plusminus" format="1">
  <advance width="1458"/>
  <unicode hex="00B1"/>
  <outline>
    <contour>
      <point x="200" y="0" type="line"/>
      <point x="200" y="138" type="line"/>
      <point x="1249" y="138" type="line"/>
      <point x="1249" y="0" type="line"/>
    </contour>
    <contour>
      <point x="645" y="733" type="line"/>
      <point x="645" y="1107" type="line"/>
      <point x="794" y="1107" type="line"/>
      <point x="794" y="733" type="line"/>
      <point x="1245" y="733" type="line"/>
      <point x="1245" y="595" type="line"/>
      <point x="798" y="595" type="line"/>
      <point x="798" y="223" type="line"/>
      <point x="647" y="223" type="line"/>
      <point x="647" y="595" type="line"/>
      <point x="200" y="595" type="line"/>
      <point x="188" y="733" type="line"/>
    </contour>
  </outline>
</glyph>
<glyph name="paragraph" format="1">
  <advance width="1214"/>
  <unicode hex="00B6"/>
  <outline>
    <contour>
      <point x="442" y="-148" type="line"/>
      <point x="442" y="786" type="line"/>
      <point x="286" y="788"/>
      <point x="182" y="877"/>
      <point x="134" y="990" type="curve" smooth="yes"/>
      <point x="116" y="1032"/>
      <point x="107" y="1079"/>
      <point x="107" y="1130" type="curve" smooth="yes"/>
      <point x="107" y="1394"/>
      <point x="359" y="1451"/>
      <point x="623" y="1451" type="curve" smooth="yes"/>
      <point x="1009" y="1451" type="line"/>
      <point x="1009" y="1327" type="line"/>
      <point x="922" y="1327" type="line"/>
      <point x="922" y="-148" type="line"/>
      <point x="793" y="-148" type="line"/>
      <point x="793" y="1327" type="line"/>
      <point x="585" y="1327" type="line"/>
      <point x="585" y="-148" type="line"/>
    </contour>
  </outline>
</glyph>
<glyph name="AE" format="1">
  <advance width="2028"/>
  <unicode hex="00C6"/>
  <outline>
    <contour>
      <point x="944" y="1308" type="line"/>
      <point x="506" y="546" type="line"/>
      <point x="1054" y="546" type="line"/>
      <point x="994" y="1308" type="line"/>
    </contour>
    <contour>
      <point x="836" y="1456" type="line"/>
      <point x="1878" y="1456" type="line"/>
      <point x="1878" y="1308" type="line"/>
      <point x="1159" y="1308" type="line"/>
      <point x="1197" y="820" type="line"/>
      <point x="1837" y="820" type="line"/>
      <point x="1837" y="672" type="line"/>
      <point x="1216" y="672" type="line"/>
      <point x="1257" y="148" type="line"/>
      <point x="1901" y="148" type="line"/>
      <point x="1901" y="0" type="line"/>
      <point x="1104" y="0" type="line"/>
      <point x="1073" y="398" type="line"/>
      <point x="427" y="398" type="line"/>
      <point x="201" y="0" type="line"/>
      <point x="5" y="0" type="line"/>
    </contour>
  </outline>
</glyph>
<glyph name="Oslash" format="1">
  <advance width="1663"/>
  <unicode hex="00D8"/>
  <outline>
    <contour>
      <point x="1189" y="1402" type="line"/>
      <point x="1408" y="1287"/>
      <point x="1544" y="1058"/>
      <point x="1544" y="726" type="curve" smooth="yes"/>
      <point x="1544" y="373"/>
      <point x="1383" y="136"/>
      <point x="1130" y="32" type="curve" smooth="yes"/>
      <point x="1041" y="-5"/>
      <point x="941" y="-23"/>
      <point x="829" y="-23" type="curve" smooth="yes"/>
      <point x="764" y="-23"/>
      <point x="704" y="-17"/>
      <point x="648" y="-5" type="curve"/>
      <point x="605" y="-117" type="line"/>
      <point x="442" y="-117" type="line"/>
      <point x="502" y="41" type="line"/>
      <point x="260" y="151"/>
      <point x="114" y="383"/>
      <point x="114" y="729" type="curve" smooth="yes"/>
      <point x="114" y="1083"/>
      <point x="280" y="1320"/>
      <point x="532" y="1426" type="curve" smooth="yes"/>
      <point x="621" y="1464"/>
      <point x="723" y="1483"/>
      <point x="837" y="1483" type="curve" smooth="yes"/>
      <point x="915" y="1483"/>
      <point x="981" y="1474"/>
      <point x="1044" y="1458" type="curve"/>
      <point x="1079" y="1549" type="line"/>
      <point x="1246" y="1549" type="line"/>
    </contour>
    <contour>
      <point x="352" y="1049"/>
      <point x="298" y="901"/>
      <point x="298" y="725" type="curve" smooth="yes"/>
      <point x="298" y="470"/>
      <point x="395" y="284"/>
      <point x="559" y="191" type="curve"/>
      <point x="989" y="1314" type="line"/>
      <point x="941" y="1328"/>
      <point x="888" y="1335"/>
      <point x="830" y="1335" type="curve" smooth="yes"/>
      <point x="646" y="1335"/>
      <point x="518" y="1256"/>
      <point x="434" y="1151" type="curve" smooth="yes"/>
    </contour>
    <contour>
      <point x="1345" y="566"/>
      <point x="1356" y="647"/>
      <point x="1356" y="734" type="curve" smooth="yes"/>
      <point x="1356" y="974"/>
      <point x="1273" y="1151"/>
      <point x="1130" y="1249" type="curve"/>
      <point x="703" y="137" type="line"/>
      <point x="741" y="129"/>
      <point x="782" y="125"/>
      <point x="827" y="125" type="curve" smooth="yes"/>
      <point x="1102" y="125"/>
      <point x="1260" y="278"/>
      <point x="1323" y="492" type="curve" smooth="yes"/>
    </contour>
    <contour>
      <point x="832" y="0" type="move" name="top"/>
    </contour>
  </outline>
</glyph>
<glyph name="Thorn" format="1">
  <advance width="1274"/>
  <unicode hex="00DE"/>
  <outline>
    <contour>
      <point x="544" y="1312" type="line" smooth="yes"/>
      <point x="899" y="1312"/>
      <point x="1200" y="1231"/>
      <point x="1200" y="876" type="curve" smooth="yes"/>
      <point x="1200" y="714"/>
      <point x="1121" y="611"/>
      <point x="1018" y="546" type="curve" smooth="yes"/>
      <point x="913" y="480"/>
      <point x="764" y="443"/>
      <point x="597" y="443" type="curve" smooth="yes"/>
      <point x="375" y="443" type="line"/>
      <point x="375" y="0" type="line"/>
      <point x="203" y="0" type="line"/>
      <point x="203" y="1456" type="line"/>
      <point x="375" y="1456" type="line"/>
      <point x="375" y="1312" type="line"/>
    </contour>
    <contour>
      <point x="1016" y="874" type="curve" smooth="yes"/>
      <point x="1016" y="1114"/>
      <point x="828" y="1164"/>
      <point x="588" y="1164" type="curve" smooth="yes"/>
      <point x="375" y="1164" type="line"/>
      <point x="375" y="592" type="line"/>
      <point x="636" y="592" type="line" smooth="yes"/>
      <point x="802" y="592"/>
      <point x="930" y="639"/>
      <point x="988" y="747" type="curve" smooth="yes"/>
      <point x="1007" y="782"/>
      <point x="1016" y="825"/>
    </contour>
  </outline>
</glyph>
<glyph name="eth" format="1">
  <advance width="1190"/>
  <unicode hex="00F0"/>
  <outline>
    <contour>
      <point x="826" y="1163" type="line"/>
      <point x="766" y="1271"/>
      <point x="684" y="1344"/>
      <point x="574" y="1406" type="curve"/>
      <point x="653" y="1490" type="line"/>
      <point x="812" y="1428"/>
      <point x="920" y="1315"/>
      <point x="993" y="1163" type="curve"/>
      <point x="1190" y="1163" type="line"/>
      <point x="1190" y="1026" type="line"/>
      <point x="1045" y="1026" type="line"/>
      <point x="1075" y="921"/>
      <point x="1093" y="805"/>
      <point x="1093" y="672" type="curve" smooth="yes"/>
      <point x="1093" y="361"/>
      <point x="1006" y="121"/>
      <point x="798" y="22" type="curve" smooth="yes"/>
      <point x="734" y="-8"/>
      <point x="662" y="-23"/>
      <point x="581" y="-23" type="curve" smooth="yes"/>
      <point x="347" y="-23"/>
      <point x="189" y="93"/>
      <point x="122" y="261" type="curve" smooth="yes"/>
      <point x="99" y="318"/>
      <point x="88" y="380"/>
      <point x="88" y="446" type="curve" smooth="yes"/>
      <point x="88" y="662"/>
      <point x="199" y="802"/>
      <point x="356" y="864" type="curve" smooth="yes"/>
      <point x="412" y="886"/>
      <point x="475" y="897"/>
      <point x="545" y="897" type="curve" smooth="yes"/>
      <point x="725" y="897"/>
      <point x="846" y="838"/>
      <point x="918" y="723" type="curve"/>
      <point x="918" y="733" type="line"/>
      <point x="917" y="847"/>
      <point x="906" y="937"/>
      <point x="882" y="1026" type="curve"/>
      <point x="620" y="1026" type="line"/>
      <point x="620" y="1163" type="line"/>
    </contour>
    <contour>
      <point x="572" y="757" type="curve" smooth="yes"/>
      <point x="373" y="757"/>
      <point x="264" y="638"/>
      <point x="264" y="441" type="curve" smooth="yes"/>
      <point x="264" y="291"/>
      <point x="339" y="188"/>
      <point x="446" y="142" type="curve" smooth="yes"/>
      <point x="484" y="126"/>
      <point x="526" y="118"/>
      <point x="573" y="118" type="curve" smooth="yes"/>
      <point x="798" y="118"/>
      <point x="903" y="290"/>
      <point x="903" y="512" type="curve" smooth="yes"/>
      <point x="903" y="536" type="line"/>
      <point x="859" y="664"/>
      <point x="742" y="757"/>
    </contour>
  </outline>
</glyph>
<glyph name="oslash" format="1">
  <advance width="1238"/>
  <unicode hex="00F8"/>
  <outline>
    <contour>
      <point x="358" y="34" type="line"/>
      <point x="198" y="114"/>
      <point x="90" y="275"/>
      <point x="90" y="511" type="curve" smooth="yes"/>
      <point x="90" y="762"/>
      <point x="215" y="931"/>
      <point x="394" y="1008" type="curve" smooth="yes"/>
      <point x="460" y="1036"/>
      <point x="535" y="1051"/>
      <point x="620" y="1051" type="curve" smooth="yes"/>
      <point x="675" y="1051"/>
      <point x="728" y="1044"/>
      <point x="780" y="1031" type="curve"/>
      <point x="884" y="1277" type="line"/>
      <point x="987" y="1245" type="line"/>
      <point x="880" y="993" type="line"/>
      <point x="1038" y="912"/>
      <point x="1140" y="749"/>
      <point x="1140" y="513" type="curve" smooth="yes"/>
      <point x="1140" y="265"/>
      <point x="1016" y="97"/>
      <point x="840" y="20" type="curve" smooth="yes"/>
      <point x="775" y="-9"/>
      <point x="700" y="-23"/>
      <point x="616" y="-23" type="curve" smooth="yes"/>
      <point x="561" y="-23"/>
      <point x="508" y="-16"/>
      <point x="456" y="-3" type="curve"/>
      <point x="346" y="-261" type="line"/>
      <point x="247" y="-229" type="line"/>
    </contour>
    <contour>
      <point x="725" y="902" type="line"/>
      <point x="692" y="911"/>
      <point x="657" y="917"/>
      <point x="616" y="917" type="curve" smooth="yes"/>
      <point x="434" y="917"/>
      <point x="329" y="804"/>
      <point x="286" y="663" type="curve" smooth="yes"/>
      <point x="271" y="614"/>
      <point x="263" y="562"/>
      <point x="263" y="509" type="curve" smooth="yes"/>
      <point x="263" y="352"/>
      <point x="322" y="236"/>
      <point x="415" y="170" type="curve"/>
    </contour>
    <contour>
      <point x="966" y="511" type="curve" smooth="yes"/>
      <point x="966" y="665"/>
      <point x="913" y="787"/>
      <point x="821" y="855" type="curve"/>
      <point x="510" y="124" type="line"/>
      <point x="543" y="114"/>
      <point x="579" y="109"/>
      <point x="620" y="109" type="curve" smooth="yes"/>
      <point x="801" y="109"/>
      <point x="904" y="217"/>
      <point x="945" y="358" type="curve" smooth="yes"/>
      <point x="959" y="406"/>
      <point x="966" y="458"/>
    </contour>
  </outline>
</glyph>
<glyph name="thorn" format="1">
  <advance width="1239"/>
  <unicode hex="00FE"/>
  <outline>
    <contour>
      <point x="325" y="882" type="line"/>
      <point x="399" y="982"/>
      <point x="507" y="1051"/>
      <point x="668" y="1051" type="curve" smooth="yes"/>
      <point x="912" y="1051"/>
      <point x="1054" y="916"/>
      <point x="1110" y="728" type="curve" smooth="yes"/>
      <point x="1129" y="664"/>
      <point x="1139" y="598"/>
      <point x="1139" y="527" type="curve" smooth="yes"/>
      <point x="1139" y="284"/>
      <point x="1037" y="106"/>
      <point x="874" y="22" type="curve" smooth="yes"/>
      <point x="815" y="-8"/>
      <point x="747" y="-23"/>
      <point x="668" y="-23" type="curve" smooth="yes"/>
      <point x="524" y="-23"/>
      <point x="409" y="30"/>
      <point x="323" y="135" type="curve"/>
      <point x="323" y="-427" type="line"/>
      <point x="158" y="-427" type="line"/>
      <point x="158" y="1455" type="line"/>
      <point x="325" y="1455" type="line"/>
    </contour>
    <contour>
      <point x="963" y="521" type="curve" smooth="yes"/>
      <point x="963" y="745"/>
      <point x="875" y="917"/>
      <point x="650" y="917" type="curve" smooth="yes"/>
      <point x="411" y="917"/>
      <point x="323" y="732"/>
      <point x="323" y="494" type="curve" smooth="yes"/>
      <point x="323" y="321"/>
      <point x="389" y="195"/>
      <point x="506" y="138" type="curve" smooth="yes"/>
      <point x="546" y="119"/>
      <point x="592" y="109"/>
      <point x="644" y="109" type="curve" smooth="yes"/>
      <point x="870" y="109"/>
      <point x="963" y="296"/>
    </contour>
  </outline>
</glyph>
<glyph name="dotlessi" format="1">
  <advance width="503"/>
  <unicode hex="0131"/>
  <outline>
    <contour>
      <point x="333" y="0" type="line"/>
      <point x="167" y="0" type="line"/>
      <point x="167" y="1026" type="line"/>
      <point x="333" y="1026" type="line"/>
    </contour>
    <contour>
      <point x="252" y="0" type="move" name="top"/>
    </contour>
    <contour>
      <point x="453" y="10" type="move" name="ogonek"/>
    </contour>
  </outline>
</glyph>
<glyph name="Lslash" format="1">
  <advance width="1120"/>
  <unicode hex="0141"/>
  <outline>
    <contour>
      <point x="1073" y="0" type="line"/>
      <point x="202" y="0" type="line"/>
      <point x="202" y="605" type="line"/>
      <point x="15" y="489" type="line"/>
      <point x="15" y="626" type="line"/>
      <point x="202" y="742" type="line"/>
      <point x="202" y="1456" type="line"/>
      <point x="374" y="1456" type="line"/>
      <point x="374" y="849" type="line"/>
      <point x="659" y="1027" type="line"/>
      <point x="659" y="890" type="line"/>
      <point x="374" y="712" type="line"/>
      <point x="374" y="148" type="line"/>
      <point x="1073" y="148" type="line"/>
    </contour>
  </outline>
</glyph>
<glyph name="OE" format="1">
  <advance width="2099"/>
  <unicode hex="0152"/>
  <outline>
    <contour>
      <point x="837" y="1483" type="curve" smooth="yes"/>
      <point x="968" y="1483"/>
      <point x="1069" y="1439"/>
      <point x="1151" y="1381" type="curve"/>
      <point x="1151" y="1456" type="line"/>
      <point x="1954" y="1456" type="line"/>
      <point x="1954" y="1308" type="line"/>
      <point x="1323" y="1308" type="line"/>
      <point x="1323" y="820" type="line"/>
      <point x="1916" y="820" type="line"/>
      <point x="1916" y="672" type="line"/>
      <point x="1323" y="672" type="line"/>
      <point x="1323" y="148" type="line"/>
      <point x="1984" y="148" type="line"/>
      <point x="1984" y="0" type="line"/>
      <point x="1151" y="0" type="line"/>
      <point x="1151" y="105" type="line"/>
      <point x="1070" y="32"/>
      <point x="970" y="-23"/>
      <point x="829" y="-23" type="curve" smooth="yes"/>
      <point x="476" y="-23"/>
      <point x="256" y="154"/>
      <point x="163" y="418" type="curve" smooth="yes"/>
      <point x="130" y="511"/>
      <point x="114" y="614"/>
      <point x="114" y="729" type="curve" smooth="yes"/>
      <point x="114" y="1083"/>
      <point x="280" y="1320"/>
      <point x="532" y="1426" type="curve" smooth="yes"/>
      <point x="621" y="1464"/>
      <point x="723" y="1483"/>
    </contour>
    <contour>
      <point x="1151" y="1219" type="line"/>
      <point x="1072" y="1288"/>
      <point x="972" y="1335"/>
      <point x="830" y="1335" type="curve" smooth="yes"/>
      <point x="646" y="1335"/>
      <point x="518" y="1256"/>
      <point x="434" y="1151" type="curve" smooth="yes"/>
      <point x="352" y="1049"/>
      <point x="298" y="901"/>
      <point x="298" y="725" type="curve" smooth="yes"/>
      <point x="298" y="452"/>
      <point x="409" y="260"/>
      <point x="597" y="172" type="curve" smooth="yes"/>
      <point x="663" y="141"/>
      <point x="740" y="125"/>
      <point x="827" y="125" type="curve" smooth="yes"/>
      <point x="973" y="125"/>
      <point x="1075" y="186"/>
      <point x="1151" y="265" type="curve"/>
    </contour>
  </outline>
</glyph>
<glyph name="uni030F" format="1">
  <advance width="969"/>
  <unicode hex="030F"/>
  <outline>
    <contour>
      <point x="438" y="1174" type="line"/>
      <point x="162" y="1487" type="line"/>
      <point x="338" y="1487" type="line"/>
      <point x="558" y="1174" type="line"/>
    </contour>
    <contour>
      <point x="707" y="1174" type="line"/>
      <point x="432" y="1487" type="line"/>
      <point x="608" y="1487" type="line"/>
      <point x="825" y="1174" type="line"/>
    </contour>
  </outline>
</glyph>
<glyph name="uni0326" format="1">
  <advance width="540"/>
  <unicode hex="0326"/>
  <outline>
    <contour>
      <point x="185" y="-162" type="line"/>
      <point x="372" y="-162" type="line"/>
      <point x="209" y="-625" type="line"/>
      <point x="78" y="-625" type="line"/>
    </contour>
  </outline>
</glyph>
<glyph name="pi" format="1">
  <advance width="1288"/>
  <unicode hex="03C0"/>
  <outline>
    <contour>
      <point x="17" y="977" type="line"/>
      <point x="96" y="1037"/>
      <point x="227" y="1040"/>
      <point x="369" y="1040" type="curve" smooth="yes"/>
      <point x="1214" y="1040" type="line"/>
      <point x="1214" y="907" type="line"/>
      <point x="1010" y="907" type="line"/>
      <point x="1010" y="288" type="line" smooth="yes"/>
      <point x="1010" y="206"/>
      <point x="1024" y="147"/>
      <point x="1108" y="147" type="curve" smooth="yes"/>
      <point x="1133" y="147"/>
      <point x="1159" y="151"/>
      <point x="1188" y="160" type="curve"/>
      <point x="1186" y="130" type="line" smooth="yes"/>
      <point x="1185" y="120"/>
      <point x="1185" y="110"/>
      <point x="1185" y="100" type="curve" smooth="yes"/>
      <point x="1185" y="65"/>
      <point x="1188" y="35"/>
      <point x="1198" y="6" type="curve"/>
      <point x="1153" y="-2"/>
      <point x="1108" y="-8"/>
      <point x="1061" y="-8" type="curve" smooth="yes"/>
      <point x="888" y="-8"/>
      <point x="851" y="104"/>
      <point x="851" y="279" type="curve" smooth="yes"/>
      <point x="851" y="907" type="line"/>
      <point x="480" y="907" type="line"/>
      <point x="458" y="619"/>
      <point x="439" y="335"/>
      <point x="374" y="88" type="curve" smooth="yes"/>
      <point x="364" y="51"/>
      <point x="353" y="21"/>
      <point x="341" y="0" type="curve"/>
      <point x="172" y="0" type="line"/>
      <point x="232" y="105"/>
      <point x="257" y="263"/>
      <point x="276" y="411" type="curve" smooth="yes"/>
      <point x="296" y="567"/>
      <point x="306" y="739"/>
      <point x="311" y="907" type="curve"/>
      <point x="194" y="904"/>
      <point x="111" y="887"/>
      <point x="34" y="846" type="curve"/>
    </contour>
  </outline>
</glyph>
<glyph name="dagger" format="1">
  <advance width="1022"/>
  <unicode hex="2020"/>
  <outline>
    <contour>
      <point x="433" y="934" type="line"/>
      <point x="107" y="934" type="line"/>
      <point x="107" y="1066" type="line"/>
      <point x="433" y="1066" type="line"/>
      <point x="433" y="1451" type="line"/>
      <point x="575" y="1451" type="line"/>
      <point x="575" y="1066" type="line"/>
      <point x="919" y="1066" type="line"/>
      <point x="919" y="934" type="line"/>
      <point x="561" y="934" type="line"/>
      <point x="561" y="113" type="line"/>
      <point x="433" y="113" type="line"/>
    </contour>
  </outline>
</glyph>
<glyph name="daggerdbl" format="1">
  <advance width="1022"/>
  <unicode hex="2021"/>
  <outline>
    <contour>
      <point x="442" y="983" type="line"/>
      <point x="104" y="983" type="line"/>
      <point x="104" y="1115" type="line"/>
      <point x="448" y="1115" type="line"/>
      <point x="422" y="1451" type="line"/>
      <point x="593" y="1451" type="line"/>
      <point x="572" y="1115" type="line"/>
      <point x="916" y="1115" type="line"/>
      <point x="916" y="983" type="line"/>
      <point x="565" y="983" type="line"/>
      <point x="565" y="562" type="line"/>
      <point x="909" y="562" type="line"/>
      <point x="909" y="435" type="line"/>
      <point x="565" y="435" type="line"/>
      <point x="591" y="113" type="line"/>
      <point x="420" y="113" type="line"/>
      <point x="442" y="435" type="line"/>
      <point x="98" y="435" type="line"/>
      <point x="98" y="562" type="line"/>
      <point x="442" y="562" type="line"/>
    </contour>
  </outline>
</glyph>
<glyph name="ellipsis" format="1">
  <advance width="1620"/>
  <unicode hex="2026"/>
  <outline>
    <contour>
      <point x="376" y="-11" type="line"/>
      <point x="159" y="-11" type="line"/>
      <point x="159" y="199" type="line"/>
      <point x="376" y="199" type="line"/>
    </contour>
    <contour>
      <point x="916" y="-11" type="line"/>
      <point x="699" y="-11" type="line"/>
      <point x="699" y="199" type="line"/>
      <point x="916" y="199" type="line"/>
    </contour>
    <contour>
      <point x="1456" y="-11" type="line"/>
      <point x="1239" y="-11" type="line"/>
      <point x="1239" y="199" type="line"/>
      <point x="1456" y="199" type="line"/>
    </contour>
  </outline>
</glyph>
<glyph name="trademark" format="1">
  <advance width="1869"/>
  <unicode hex="2122"/>
  <outline>
    <contour>
      <point x="1009" y="1451" type="line"/>
      <point x="1245" y="900" type="line"/>
      <point x="1495" y="1451" type="line"/>
      <point x="1675" y="1451" type="line"/>
      <point x="1675" y="686" type="line"/>
      <point x="1553" y="686" type="line"/>
      <point x="1553" y="1281" type="line"/>
      <point x="1279" y="686" type="line"/>
      <point x="1199" y="686" type="line"/>
      <point x="940" y="1280" type="line"/>
      <point x="940" y="686" type="line"/>
      <point x="819" y="686" type="line"/>
      <point x="819" y="1451" type="line"/>
    </contour>
    <contour>
      <point x="707" y="1451" type="line"/>
      <point x="707" y="1350" type="line"/>
      <point x="447" y="1350" type="line"/>
      <point x="447" y="686" type="line"/>
      <point x="323" y="686" type="line"/>
      <point x="323" y="1350" type="line"/>
      <point x="70" y="1350" type="line"/>
      <point x="70" y="1451" type="line"/>
    </contour>
  </outline>
</glyph>
<glyph name="product" format="1">
  <advance width="1568"/>
  <unicode hex="220F"/>
  <outline>
    <contour>
      <point x="1440" y="1278" type="line"/>
      <point x="1327" y="1278" type="line"/>
      <point x="1327" y="-329" type="line"/>
      <point x="1149" y="-329" type="line"/>
      <point x="1149" y="1278" type="line"/>
      <point x="426" y="1278" type="line"/>
      <point x="426" y="-329" type="line"/>
      <point x="251" y="-329" type="line"/>
      <point x="251" y="1278" type="line"/>
      <point x="126" y="1278" type="line"/>
      <point x="110" y="1423" type="line"/>
      <point x="1456" y="1423" type="line"/>
    </contour>
  </outline>
</glyph>
<glyph name="uniFB01" format="1">
  <advance width="1205"/>
  <unicode hex="FB01"/>
  <outline>
    <contour>
      <point x="573" y="1379" type="curve" smooth="yes"/>
      <point x="438" y="1379"/>
      <point x="412" y="1297"/>
      <point x="412" y="1162" type="curve" smooth="yes"/>
      <point x="411" y="1026" type="line"/>
      <point x="1034" y="1026" type="line"/>
      <point x="1034" y="0" type="line"/>
      <point x="869" y="0" type="line"/>
      <point x="869" y="919" type="line"/>
      <point x="411" y="919" type="line"/>
      <point x="411" y="0" type="line"/>
      <point x="246" y="0" type="line"/>
      <point x="246" y="919" type="line"/>
      <point x="45" y="919" type="line"/>
      <point x="45" y="1026" type="line"/>
      <point x="246" y="1026" type="line"/>
      <point x="248" y="1138" type="line" smooth="yes"/>
      <point x="251" y="1358"/>
      <point x="322" y="1514"/>
      <point x="545" y="1514" type="curve" smooth="yes"/>
      <point x="600" y="1514"/>
      <point x="637" y="1503"/>
      <point x="681" y="1493" type="curve"/>
      <point x="683" y="1364" type="line"/>
      <point x="657" y="1374"/>
      <point x="610" y="1379"/>
    </contour>
    <contour>
      <point x="1030" y="1462" type="line"/>
      <point x="1030" y="1307" type="line"/>
      <point x="877" y="1307" type="line"/>
      <point x="877" y="1462" type="line"/>
    </contour>
  </outline>
</glyph>
<glyph name="J.alt" format="1">
  <advance width="939"/>
  <outline>
    <contour>
      <point x="122" y="197" type="line"/>
      <point x="176" y="156"/>
      <point x="237" y="125"/>
      <point x="326" y="125" type="curve" smooth="yes"/>
      <point x="517" y="125"/>
      <point x="583" y="296"/>
      <point x="583" y="488" type="curve" smooth="yes"/>
      <point x="583" y="1456" type="line"/>
      <point x="755" y="1456" type="line"/>
      <point x="755" y="499" type="line" smooth="yes"/>
      <point x="755" y="256"/>
      <point x="671" y="82"/>
      <point x="502" y="11" type="curve" smooth="yes"/>
      <point x="448" y="-12"/>
      <point x="388" y="-23"/>
      <point x="321" y="-23" type="curve" smooth="yes"/>
      <point x="208" y="-23"/>
      <point x="131" y="21"/>
      <point x="71" y="81" type="curve"/>
    </contour>
  </outline>
</glyph>
<glyph name="k.alt" format="1">
  <advance width="1082"/>
  <outline>
    <contour>
      <point x="693" y="583" type="line"/>
      <point x="1066" y="0" type="line"/>
      <point x="885" y="0" type="line"/>
      <point x="578" y="485" type="line"/>
    </contour>
    <contour>
      <point x="303" y="0" type="curve"/>
      <point x="178" y="0" type="line"/>
      <point x="178" y="1526" type="line"/>
      <point x="343" y="1526" type="line"/>
      <point x="343" y="308" type="line"/>
      <point x="819" y="1026" type="line"/>
      <point x="998" y="1026" type="line"/>
      <point x="766" y="684"/>
      <point x="534" y="343"/>
    </contour>
  </outline>
</glyph>
<glyph name="n.alt" format="1">
  <advance width="1263"/>
  <outline>
    <contour>
      <point x="881" y="265" type="line" smooth="yes"/>
      <point x="883" y="572" type="line" smooth="yes"/>
      <point x="883" y="585" type="line" smooth="yes"/>
      <point x="883" y="790"/>
      <point x="850" y="911"/>
      <point x="639" y="911" type="curve" smooth="yes"/>
      <point x="485" y="911"/>
      <point x="345" y="799"/>
      <point x="345" y="652" type="curve" smooth="yes"/>
      <point x="345" y="0" type="line"/>
      <point x="180" y="0" type="line"/>
      <point x="180" y="699" type="line" smooth="yes"/>
      <point x="180" y="784"/>
      <point x="160" y="977"/>
      <point x="154" y="1026" type="curve"/>
      <point x="321" y="1026" type="line"/>
      <point x="343" y="884" type="line"/>
      <point x="416" y="988"/>
      <point x="499" y="1051"/>
      <point x="667" y="1051" type="curve" smooth="yes"/>
      <point x="960" y="1051"/>
      <point x="1048" y="867"/>
      <point x="1048" y="577" type="curve" smooth="yes"/>
      <point x="1048" y="567" type="line" smooth="yes"/>
      <point x="1046" y="270" type="line" smooth="yes"/>
      <point x="1046" y="255" type="line" smooth="yes"/>
      <point x="1046" y="142"/>
      <point x="1057" y="117"/>
      <point x="1132" y="102" type="curve"/>
      <point x="1096" y="-24" type="line"/>
      <point x="908" y="-2"/>
      <point x="881" y="62"/>
      <point x="881" y="248" type="curve" smooth="yes"/>
    </contour>
  </outline>
</glyph>
<glyph name="s.alt" format="1">
  <advance width="1001"/>
  <outline>
    <contour>
      <point x="739.0" y="272.0" type="curve" smooth="yes"/>
      <point x="739.0" y="404.0"/>
      <point x="555.0" y="431.0"/>
      <point x="448.0" y="463.0" type="curve" smooth="yes"/>
      <point x="283.0" y="512.0"/>
      <point x="114.0" y="570.0"/>
      <point x="114.0" y="771.0" type="curve" smooth="yes"/>
      <point x="114.0" y="967.0"/>
      <point x="294.0" y="1056.0"/>
      <point x="494.0" y="1056.0" type="curve" smooth="yes"/>
      <point x="612.0" y="1056.0"/>
      <point x="736.0" y="1025.0"/>
      <point x="834.0" y="966.0" type="curve"/>
      <point x="787.0" y="844.0" type="line"/>
      <point x="732.0" y="880.0"/>
      <point x="606.0" y="917.0"/>
      <point x="493.0" y="917.0" type="curve" smooth="yes"/>
      <point x="382.0" y="917.0"/>
      <point x="285.0" y="881.0"/>
      <point x="285.0" y="774.0" type="curve" smooth="yes"/>
      <point x="285.0" y="653.0"/>
      <point x="455.0" y="625.0"/>
      <point x="550.0" y="596.0" type="curve" smooth="yes"/>
      <point x="710.0" y="547.0"/>
      <point x="902.0" y="492.0"/>
      <point x="902.0" y="284.0" type="curve" smooth="yes"/>
      <point x="902.0" y="52.0"/>
      <point x="739.0" y="-26.0"/>
      <point x="552.0" y="-26.0" type="curve" smooth="yes"/>
      <point x="396.0" y="-26.0"/>
      <point x="220.0" y="25.0"/>
      <point x="114.0" y="90.0" type="curve"/>
      <point x="161.0" y="227.0" type="line"/>
      <point x="236.0" y="170.0"/>
      <point x="396.0" y="112.0"/>
      <point x="529.0" y="112.0" type="curve" smooth="yes"/>
      <point x="644.0" y="112.0"/>
      <point x="739.0" y="150.0"/>
    </contour>
  </outline>
</glyph>
<glyph name="u.alt" format="1">
  <advance width="1215"/>
  <outline>
    <contour>
      <point x="324" y="379" type="line" smooth="yes"/>
      <point x="324" y="183"/>
      <point x="434.0" y="118.0"/>
      <point x="555.0" y="118.0" type="curve" smooth="yes"/>
      <point x="699.0" y="118.0"/>
      <point x="857" y="222"/>
      <point x="857" y="418" type="curve" smooth="yes"/>
      <point x="857.0" y="1026.0" type="line"/>
      <point x="1022.0" y="1026.0" type="line"/>
      <point x="1022.0" y="286.0" type="line" smooth="yes"/>
      <point x="1022.0" y="170.0"/>
      <point x="1094.0" y="139.0"/>
      <point x="1146.0" y="139.0" type="curve"/>
      <point x="1111.0" y="-4.0" type="line"/>
      <point x="1014.0" y="-4.0"/>
      <point x="916.0" y="44.0"/>
      <point x="889.0" y="155.0" type="curve"/>
      <point x="807" y="38"/>
      <point x="688" y="-24"/>
      <point x="530.0" y="-24.0" type="curve" smooth="yes"/>
      <point x="336" y="-24"/>
      <point x="159" y="94"/>
      <point x="159" y="379" type="curve" smooth="yes"/>
      <point x="159" y="582" type="line"/>
      <point x="159" y="871"/>
      <point x="120" y="1026"/>
      <point x="120" y="1026" type="curve"/>
      <point x="285" y="1026" type="line"/>
      <point x="285" y="1026"/>
      <point x="324" y="911"/>
      <point x="324" y="595" type="curve"/>
    </contour>
  </outline>
</glyph>
